<?xml version="1.0" encoding="UTF-8"?><svg xmlns="http://www.w3.org/2000/svg" xmlns:xlink="http://www.w3.org/1999/xlink" fill-opacity="1" color-rendering="auto" color-interpolation="auto" text-rendering="auto" stroke="black" stroke-linecap="square" width="686" stroke-miterlimit="10" shape-rendering="auto" stroke-opacity="1" fill="black" stroke-dasharray="none" font-weight="normal" stroke-width="1" height="465" font-family="'Dialog'" font-style="normal" stroke-linejoin="miter" font-size="12px" stroke-dashoffset="0" image-rendering="auto">
  <!--Generated by ySVG 2.5-->
  <defs id="genericDefs"/>
  <g>
    <defs id="defs1">
      <clipPath clipPathUnits="userSpaceOnUse" id="clipPath1">
        <path d="M0 0 L686 0 L686 465 L0 465 L0 0 Z"/>
      </clipPath>
      <clipPath clipPathUnits="userSpaceOnUse" id="clipPath2">
        <path d="M164 59 L850 59 L850 524 L164 524 L164 59 Z"/>
      </clipPath>
    </defs>
    <g fill="white" text-rendering="geometricPrecision" shape-rendering="geometricPrecision" transform="translate(-164,-59)" stroke="white">
      <rect x="164" width="686" height="465" y="59" clip-path="url(#clipPath2)" stroke="none"/>
    </g>
    <g fill="white" text-rendering="geometricPrecision" shape-rendering="geometricPrecision" transform="matrix(1,0,0,1,-164,-59)" stroke="white">
      <rect x="533" width="302" height="166" y="202" clip-path="url(#clipPath2)" stroke="none"/>
    </g>
    <g text-rendering="geometricPrecision" stroke-miterlimit="1.45" shape-rendering="geometricPrecision" transform="matrix(1,0,0,1,-164,-59)" stroke-linecap="butt">
      <rect fill="none" x="533" width="302" height="166" y="202" clip-path="url(#clipPath2)"/>
      <text x="575.9991" xml:space="preserve" y="192.484" clip-path="url(#clipPath2)" font-family="'Noto Sans Mono'" stroke="none">struct _mulle_objc_threadinfo </text>
    </g>
    <g fill="rgb(204,255,204)" text-rendering="geometricPrecision" shape-rendering="geometricPrecision" transform="matrix(1,0,0,1,-164,-59)" stroke="rgb(204,255,204)">
      <rect x="356" width="78" height="86" y="116" clip-path="url(#clipPath2)" stroke="none"/>
    </g>
    <g text-rendering="geometricPrecision" stroke-miterlimit="1.45" shape-rendering="geometricPrecision" transform="matrix(1,0,0,1,-164,-59)" stroke-linecap="butt">
      <rect fill="none" x="356" width="78" height="86" y="116" clip-path="url(#clipPath2)"/>
      <text x="383.7178" xml:space="preserve" y="163.1543" clip-path="url(#clipPath2)" font-family="sans-serif" stroke="none">TSS</text>
    </g>
    <g fill="white" text-rendering="geometricPrecision" shape-rendering="geometricPrecision" transform="matrix(1,0,0,1,-164,-59)" stroke="white">
      <rect x="356" width="78" height="166" y="202" clip-path="url(#clipPath2)" stroke="none"/>
    </g>
    <g text-rendering="geometricPrecision" stroke-miterlimit="1.45" shape-rendering="geometricPrecision" transform="matrix(1,0,0,1,-164,-59)" stroke-linecap="butt">
      <rect fill="none" x="356" width="78" height="166" y="202" clip-path="url(#clipPath2)"/>
      <text x="378.3887" xml:space="preserve" y="289.1543" clip-path="url(#clipPath2)" font-family="sans-serif" stroke="none">Stack</text>
    </g>
    <g fill="rgb(204,255,255)" text-rendering="geometricPrecision" shape-rendering="geometricPrecision" transform="matrix(1,0,0,1,-164,-59)" stroke="rgb(204,255,255)">
      <rect x="533" width="302" height="54" y="251" clip-path="url(#clipPath2)" stroke="none"/>
    </g>
    <g text-rendering="geometricPrecision" stroke-miterlimit="1.45" shape-rendering="geometricPrecision" transform="matrix(1,0,0,1,-164,-59)" stroke-linecap="butt">
      <rect fill="none" x="533" width="302" height="54" y="251" clip-path="url(#clipPath2)"/>
      <text x="550.799" xml:space="preserve" y="282.656" clip-path="url(#clipPath2)" font-family="'Noto Sans Mono'" stroke="none">struct __mulle_objc_poolconfiguration</text>
    </g>
    <g fill="rgb(204,153,255)" text-rendering="geometricPrecision" shape-rendering="geometricPrecision" transform="matrix(1,0,0,1,-164,-59)" stroke="rgb(204,153,255)">
      <rect x="676" width="141" height="54" y="455" clip-path="url(#clipPath2)" stroke="none"/>
    </g>
    <g text-rendering="geometricPrecision" stroke-miterlimit="1.45" shape-rendering="geometricPrecision" transform="matrix(1,0,0,1,-164,-59)" stroke-linecap="butt">
      <rect fill="none" x="676" width="141" height="54" y="455" clip-path="url(#clipPath2)"/>
      <text x="685.2995" xml:space="preserve" y="486.656" clip-path="url(#clipPath2)" font-family="'Noto Sans Mono'" stroke="none">NSAutoreleasePool</text>
    </g>
    <g fill="rgb(153,204,255)" text-rendering="geometricPrecision" shape-rendering="geometricPrecision" transform="matrix(1,0,0,1,-164,-59)" stroke="rgb(153,204,255)">
      <rect x="427.5" width="141" height="54" y="455" clip-path="url(#clipPath2)" stroke="none"/>
    </g>
    <g text-rendering="geometricPrecision" stroke-miterlimit="1.45" shape-rendering="geometricPrecision" transform="matrix(1,0,0,1,-164,-59)" stroke-linecap="butt">
      <rect fill="none" x="427.5" width="141" height="54" y="455" clip-path="url(#clipPath2)"/>
      <text x="436.7995" xml:space="preserve" y="486.656" clip-path="url(#clipPath2)" font-family="'Noto Sans Mono'" stroke="none">NSAutoreleasePool</text>
    </g>
    <g fill="rgb(153,204,255)" text-rendering="geometricPrecision" shape-rendering="geometricPrecision" transform="matrix(1,0,0,1,-164,-59)" stroke="rgb(153,204,255)">
      <rect x="179" width="141" height="54" y="455" clip-path="url(#clipPath2)" stroke="none"/>
    </g>
    <g text-rendering="geometricPrecision" stroke-miterlimit="1.45" shape-rendering="geometricPrecision" transform="matrix(1,0,0,1,-164,-59)" stroke-linecap="butt">
      <rect fill="none" x="179" width="141" height="54" y="455" clip-path="url(#clipPath2)"/>
      <text x="188.2995" xml:space="preserve" y="486.656" clip-path="url(#clipPath2)" font-family="'Noto Sans Mono'" stroke="none">NSAutoreleasePool</text>
    </g>
    <g fill="white" text-rendering="geometricPrecision" shape-rendering="geometricPrecision" transform="matrix(1,0,0,1,-164,-59)" stroke="white">
      <rect x="179" width="78" height="30" y="144" clip-path="url(#clipPath2)" stroke="none"/>
    </g>
    <g text-rendering="geometricPrecision" stroke-miterlimit="1.45" shape-rendering="geometricPrecision" transform="matrix(1,0,0,1,-164,-59)" stroke-linecap="butt">
      <rect fill="none" x="179" width="78" height="30" y="144" clip-path="url(#clipPath2)"/>
      <text x="192.2012" xml:space="preserve" y="135.1699" clip-path="url(#clipPath2)" font-family="sans-serif" stroke="none">universe</text>
    </g>
    <g fill="rgb(204,255,255)" text-rendering="geometricPrecision" shape-rendering="geometricPrecision" transform="matrix(1,0,0,1,-164,-59)" stroke="rgb(204,255,255)">
      <rect x="179" width="78" height="30" y="174" clip-path="url(#clipPath2)" stroke="none"/>
    </g>
    <g text-rendering="geometricPrecision" stroke-miterlimit="1.45" shape-rendering="geometricPrecision" transform="matrix(1,0,0,1,-164,-59)" stroke-linecap="butt">
      <rect fill="none" x="179" width="78" height="30" y="174" clip-path="url(#clipPath2)"/>
      <text x="185.5997" xml:space="preserve" y="193.656" clip-path="url(#clipPath2)" font-family="'Noto Sans Mono'" stroke="none">threadkey</text>
    </g>
    <g fill="white" text-rendering="geometricPrecision" shape-rendering="geometricPrecision" transform="matrix(1,0,0,1,-164,-59)" stroke="white">
      <rect x="356" width="78" height="30" y="96" clip-path="url(#clipPath2)" stroke="none"/>
    </g>
    <g text-rendering="geometricPrecision" stroke-miterlimit="1.45" shape-rendering="geometricPrecision" transform="matrix(1,0,0,1,-164,-59)" stroke-linecap="butt">
      <rect fill="none" x="356" width="78" height="30" y="96" clip-path="url(#clipPath2)"/>
      <text x="375.2012" xml:space="preserve" y="87.1699" clip-path="url(#clipPath2)" font-family="sans-serif" stroke="none">thread</text>
    </g>
    <g fill="white" text-rendering="geometricPrecision" shape-rendering="geometricPrecision" transform="matrix(1,0,0,1,-164,-59)" stroke="white">
      <rect x="179" width="78" height="81" y="204" clip-path="url(#clipPath2)" stroke="none"/>
    </g>
    <g text-rendering="geometricPrecision" stroke-miterlimit="1.45" shape-rendering="geometricPrecision" transform="matrix(1,0,0,1,-164,-59)" stroke-linecap="butt">
      <rect fill="none" x="179" width="78" height="81" y="204" clip-path="url(#clipPath2)"/>
      <text x="185.1113" xml:space="preserve" y="248.6543" clip-path="url(#clipPath2)" font-family="sans-serif" stroke="none">Class table</text>
    </g>
    <g fill="white" text-rendering="geometricPrecision" shape-rendering="geometricPrecision" transform="matrix(1,0,0,1,-164,-59)" stroke="white">
      <rect x="179" width="78" height="81" y="285" clip-path="url(#clipPath2)" stroke="none"/>
    </g>
    <g text-rendering="geometricPrecision" stroke-miterlimit="1.45" shape-rendering="geometricPrecision" transform="matrix(1,0,0,1,-164,-59)" stroke-linecap="butt">
      <rect fill="none" x="179" width="78" height="81" y="285" clip-path="url(#clipPath2)"/>
      <text x="212.2783" xml:space="preserve" y="329.6543" clip-path="url(#clipPath2)" font-family="sans-serif" stroke="none">...</text>
      <path fill="none" d="M434 192.1724 L526.882 271.1755" clip-path="url(#clipPath2)"/>
      <path d="M532.9758 276.3587 L527.0746 264.7753 L526.1203 270.5276 L520.5956 272.3925 Z" clip-path="url(#clipPath2)" stroke="none"/>
      <path fill="none" d="M692.272 305 L735.8845 447.3509" clip-path="url(#clipPath2)"/>
      <path d="M738.228 455 L739.4933 442.0617 L735.5916 446.3948 L729.9321 444.9911 Z" clip-path="url(#clipPath2)" stroke="none"/>
      <path fill="none" d="M676 482 L576.5 482" clip-path="url(#clipPath2)"/>
      <path d="M568.5 482 L580.5 487 L577.5 482 L580.5 477 Z" clip-path="url(#clipPath2)" stroke="none"/>
      <path fill="none" d="M427.5 482 L328 482" clip-path="url(#clipPath2)"/>
      <path d="M320 482 L332 487 L329 482 L332 477 Z" clip-path="url(#clipPath2)" stroke="none"/>
      <path fill="none" d="M257 182.3898 L348.1125 166.947" clip-path="url(#clipPath2)"/>
      <path d="M356 165.6102 L343.3332 162.6858 L347.1266 167.1142 L345.0043 172.5452 Z" clip-path="url(#clipPath2)" stroke="none"/>
    </g>
  </g>
</svg>
