<?xml version="1.0" encoding="UTF-8" standalone="no"?>
<!DOCTYPE svg PUBLIC "-//W3C//DTD SVG 1.1//EN"
 "http://www.w3.org/Graphics/SVG/1.1/DTD/svg11.dtd">
<!-- Generated by graphviz version 2.40.1 (20161225.0304)
 -->
<!-- Title: mulle_classhierarchy Pages: 1 -->
<svg width="578pt" height="299pt"
 viewBox="0.00 0.00 578.00 298.58" xmlns="http://www.w3.org/2000/svg" xmlns:xlink="http://www.w3.org/1999/xlink">
<g id="graph0" class="graph" transform="scale(1 1) rotate(0) translate(4 294.5769)">
<title>mulle_classhierarchy</title>
<polygon fill="#ffffff" stroke="transparent" points="-4,4 -4,-294.5769 574,-294.5769 574,4 -4,4"/>
<!-- 0xa98050 -->
<g id="node1" class="node">
<title>0xa98050</title>
<polygon fill="#daa520" stroke="transparent" points="19,-237 19,-258 35,-258 35,-237 19,-237"/>
<polygon fill="none" stroke="#000000" points="19,-237 19,-258 35,-258 35,-237 19,-237"/>
<text text-anchor="start" x="22" y="-243.8" font-family="Times,serif" font-size="14.00" fill="#ffffff">A</text>
<polygon fill="none" stroke="#000000" points="16,-234.5 16,-261.5 38,-261.5 38,-234.5 16,-234.5"/>
</g>
<!-- 0xa98590 -->
<g id="node2" class="node">
<title>0xa98590</title>
<polygon fill="#daa520" stroke="transparent" points="216,-237 216,-258 230,-258 230,-237 216,-237"/>
<polygon fill="none" stroke="#000000" points="216,-237 216,-258 230,-258 230,-237 216,-237"/>
<text text-anchor="start" x="219" y="-243.8" font-family="Times,serif" font-size="14.00" fill="#ffffff">P</text>
<polygon fill="none" stroke="#000000" points="213,-234.5 213,-261.5 233,-261.5 233,-234.5 213,-234.5"/>
</g>
<!-- 0xa98050&#45;&gt;0xa98590 -->
<!-- 0xa99150 -->
<g id="node4" class="node">
<title>0xa99150</title>
<polygon fill="#daa520" stroke="transparent" points="215,-139 215,-160 231,-160 231,-139 215,-139"/>
<polygon fill="none" stroke="#000000" points="215,-139 215,-160 231,-160 231,-139 215,-139"/>
<text text-anchor="start" x="218" y="-145.8" font-family="Times,serif" font-size="14.00" fill="#ffffff">B</text>
<polygon fill="none" stroke="#000000" points="212,-136.5 212,-163.5 234,-163.5 234,-136.5 212,-136.5"/>
</g>
<!-- 0xa98050&#45;&gt;0xa99150 -->
<g id="edge3" class="edge">
<title>0xa98050&#45;&gt;0xa99150</title>
<path fill="none" stroke="#000000" d="M63.1934,-228.3029C69.1226,-225.1511 75.2172,-221.9562 81,-219 120.6582,-198.7263 167.1848,-176.3887 195.8807,-162.7762"/>
<polygon fill="#000000" stroke="#000000" points="61.2463,-225.3752 54.081,-233.1797 64.5493,-231.547 61.2463,-225.3752"/>
<text text-anchor="middle" x="177" y="-189.8" font-family="Times,serif" font-size="14.00" fill="#000000"> superclass</text>
</g>
<!-- 0x408130 -->
<g id="node5" class="node">
<title>0x408130</title>
<polygon fill="#000000" stroke="transparent" points="101,-249 101,-270 167,-270 167,-249 101,-249"/>
<polygon fill="none" stroke="#000000" points="101,-249 101,-270 167,-270 167,-249 101,-249"/>
<text text-anchor="start" x="105" y="-255.8" font-family="Times,serif" font-size="14.00" fill="#ffffff">methodlist</text>
<polygon fill="none" stroke="#000000" points="101,-226 101,-247 167,-247 167,-226 101,-226"/>
<text text-anchor="start" x="124.5" y="-232.8" font-family="Times,serif" font-size="14.00" fill="#000000">foo</text>
<polygon fill="none" stroke="#000000" points="98,-223 98,-273 170,-273 170,-223 98,-223"/>
</g>
<!-- 0xa98050&#45;&gt;0x408130 -->
<g id="edge6" class="edge">
<title>0xa98050&#45;&gt;0x408130</title>
<path fill="none" stroke="#000000" d="M54.168,-248C62.5926,-248 71.0173,-248 79.4419,-248"/>
<polygon fill="#000000" stroke="#000000" points="89.7181,-244 89.7182,-252 81.7182,-252.0001 81.7181,-244.0001 89.7181,-244"/>
<polyline fill="none" stroke="#000000" points="81.7182,-248.0001 79.7182,-248.0001 "/>
</g>
<!-- 0xa98af0 -->
<g id="node3" class="node">
<title>0xa98af0</title>
<polygon fill="#daa520" stroke="transparent" points="411,-237 411,-258 427,-258 427,-237 411,-237"/>
<polygon fill="none" stroke="#000000" points="411,-237 411,-258 427,-258 427,-237 411,-237"/>
<text text-anchor="start" x="414" y="-243.8" font-family="Times,serif" font-size="14.00" fill="#ffffff">Q</text>
<polygon fill="none" stroke="#000000" points="408,-234.5 408,-261.5 430,-261.5 430,-234.5 408,-234.5"/>
</g>
<!-- 0xa98590&#45;&gt;0xa98af0 -->
<!-- 0xa98590&#45;&gt;0xa99150 -->
<g id="edge4" class="edge">
<title>0xa98590&#45;&gt;0xa99150</title>
<path fill="none" stroke="#000000" d="M223,-219.3136C223,-202.7277 223,-182.3687 223,-168.0193"/>
<polygon fill="#000000" stroke="#000000" points="219.5001,-219.5669 223,-229.5669 226.5001,-219.567 219.5001,-219.5669"/>
<text text-anchor="middle" x="269.5" y="-189.8" font-family="Times,serif" font-size="14.00" fill="#000000"> protocolclass #0</text>
</g>
<!-- 0x4081e0 -->
<g id="node6" class="node">
<title>0x4081e0</title>
<polygon fill="#000000" stroke="transparent" points="297,-249 297,-270 363,-270 363,-249 297,-249"/>
<polygon fill="none" stroke="#000000" points="297,-249 297,-270 363,-270 363,-249 297,-249"/>
<text text-anchor="start" x="301" y="-255.8" font-family="Times,serif" font-size="14.00" fill="#ffffff">methodlist</text>
<polygon fill="none" stroke="#000000" points="297,-226 297,-247 363,-247 363,-226 297,-226"/>
<text text-anchor="start" x="320.5" y="-232.8" font-family="Times,serif" font-size="14.00" fill="#000000">foo</text>
<polygon fill="none" stroke="#000000" points="294,-223 294,-273 366,-273 366,-223 294,-223"/>
</g>
<!-- 0xa98590&#45;&gt;0x4081e0 -->
<g id="edge7" class="edge">
<title>0xa98590&#45;&gt;0x4081e0</title>
<path fill="none" stroke="#000000" d="M250.168,-248C258.5926,-248 267.0173,-248 275.4419,-248"/>
<polygon fill="#000000" stroke="#000000" points="285.7181,-244 285.7182,-252 277.7182,-252.0001 277.7181,-244.0001 285.7181,-244"/>
<polyline fill="none" stroke="#000000" points="277.7182,-248.0001 275.7182,-248.0001 "/>
</g>
<!-- 0xa98af0&#45;&gt;0xa99150 -->
<g id="edge5" class="edge">
<title>0xa98af0&#45;&gt;0xa99150</title>
<path fill="none" stroke="#000000" d="M389.5559,-223.5353C387.372,-221.9527 385.1729,-220.4246 383,-219 339.8663,-190.7207 283.2158,-169.5035 250.1863,-158.4855"/>
<polygon fill="#000000" stroke="#000000" points="387.7349,-226.5472 397.8161,-229.8061 391.9675,-220.9718 387.7349,-226.5472"/>
<text text-anchor="middle" x="397.5" y="-189.8" font-family="Times,serif" font-size="14.00" fill="#000000"> protocolclass #1</text>
</g>
<!-- 0x408268 -->
<g id="node7" class="node">
<title>0x408268</title>
<polygon fill="#000000" stroke="transparent" points="493,-249 493,-270 559,-270 559,-249 493,-249"/>
<polygon fill="none" stroke="#000000" points="493,-249 493,-270 559,-270 559,-249 493,-249"/>
<text text-anchor="start" x="497" y="-255.8" font-family="Times,serif" font-size="14.00" fill="#ffffff">methodlist</text>
<polygon fill="none" stroke="#000000" points="493,-226 493,-247 559,-247 559,-226 493,-226"/>
<text text-anchor="start" x="516.5" y="-232.8" font-family="Times,serif" font-size="14.00" fill="#000000">foo</text>
<polygon fill="none" stroke="#000000" points="490,-223 490,-273 562,-273 562,-223 490,-223"/>
</g>
<!-- 0xa98af0&#45;&gt;0x408268 -->
<g id="edge8" class="edge">
<title>0xa98af0&#45;&gt;0x408268</title>
<path fill="none" stroke="#000000" d="M446.168,-248C454.5926,-248 463.0173,-248 471.4419,-248"/>
<polygon fill="#000000" stroke="#000000" points="481.7181,-244 481.7182,-252 473.7182,-252.0001 473.7181,-244.0001 481.7181,-244"/>
<polyline fill="none" stroke="#000000" points="473.7182,-248.0001 471.7182,-248.0001 "/>
</g>
<!-- 0x4082f0 -->
<g id="node8" class="node">
<title>0x4082f0</title>
<polygon fill="#000000" stroke="transparent" points="64,-52.5 64,-73.5 130,-73.5 130,-52.5 64,-52.5"/>
<polygon fill="none" stroke="#000000" points="64,-52.5 64,-73.5 130,-73.5 130,-52.5 64,-52.5"/>
<text text-anchor="start" x="68" y="-59.3" font-family="Times,serif" font-size="14.00" fill="#ffffff">methodlist</text>
<polygon fill="#7fff00" stroke="transparent" points="64,-29.5 64,-50.5 130,-50.5 130,-29.5 64,-29.5"/>
<polygon fill="none" stroke="#000000" points="64,-29.5 64,-50.5 130,-50.5 130,-29.5 64,-29.5"/>
<text text-anchor="start" x="74" y="-36.3" font-family="Times,serif" font-size="14.00" fill="#000000">callFoos</text>
<polygon fill="#fff8dc" stroke="transparent" points="64,-6.5 64,-27.5 130,-27.5 130,-6.5 64,-6.5"/>
<polygon fill="none" stroke="#000000" points="64,-6.5 64,-27.5 130,-27.5 130,-6.5 64,-6.5"/>
<text text-anchor="start" x="87.5" y="-13.3" font-family="Times,serif" font-size="14.00" fill="#000000">foo</text>
<polygon fill="none" stroke="#000000" points="61,-4 61,-77 133,-77 133,-4 61,-4"/>
</g>
<!-- 0xa99150&#45;&gt;0x4082f0 -->
<g id="edge11" class="edge">
<title>0xa99150&#45;&gt;0x4082f0</title>
<path fill="none" stroke="#000000" d="M195.915,-142.275C179.2626,-136.5111 158.2659,-127.3144 143,-114 135.0905,-107.1017 128.0774,-98.5093 122.0591,-89.6573"/>
<polygon fill="#000000" stroke="#000000" points="113.2296,-83.2964 119.9643,-78.9787 124.2821,-85.7134 117.5474,-90.0312 113.2296,-83.2964"/>
<polyline fill="none" stroke="#000000" points="120.9147,-87.8723 121.9942,-89.556 "/>
<text text-anchor="middle" x="181" y="-102.8" font-family="Times,serif" font-size="14.00" fill="#000000">methodlist #0</text>
</g>
<!-- 0x408608 -->
<g id="node9" class="node">
<title>0x408608</title>
<polygon fill="#000000" stroke="transparent" points="188,-52.5 188,-73.5 259,-73.5 259,-52.5 188,-52.5"/>
<polygon fill="none" stroke="#000000" points="188,-52.5 188,-73.5 259,-73.5 259,-52.5 188,-52.5"/>
<text text-anchor="start" x="194.5" y="-59.3" font-family="Times,serif" font-size="14.00" fill="#ffffff">methodlist</text>
<polygon fill="none" stroke="#000000" points="188,-29.5 188,-50.5 241,-50.5 241,-29.5 188,-29.5"/>
<text text-anchor="start" x="191" y="-36.3" font-family="Times,serif" font-size="14.00" fill="#000000">category</text>
<polygon fill="#daa520" stroke="transparent" points="243,-29.5 243,-50.5 259,-50.5 259,-29.5 243,-29.5"/>
<polygon fill="none" stroke="#000000" points="243,-29.5 243,-50.5 259,-50.5 259,-29.5 243,-29.5"/>
<text text-anchor="start" x="246" y="-36.3" font-family="Times,serif" font-size="14.00" fill="#ffffff">X</text>
<polygon fill="#fff8dc" stroke="transparent" points="188,-6.5 188,-27.5 259,-27.5 259,-6.5 188,-6.5"/>
<polygon fill="none" stroke="#000000" points="188,-6.5 188,-27.5 259,-27.5 259,-6.5 188,-6.5"/>
<text text-anchor="start" x="214" y="-13.3" font-family="Times,serif" font-size="14.00" fill="#000000">foo</text>
<polygon fill="none" stroke="#000000" points="184.5,-4 184.5,-77 261.5,-77 261.5,-4 184.5,-4"/>
</g>
<!-- 0xa99150&#45;&gt;0x408608 -->
<g id="edge12" class="edge">
<title>0xa99150&#45;&gt;0x408608</title>
<path fill="none" stroke="#000000" d="M223,-131.9183C223,-120.8714 223,-106.1385 223,-91.7318"/>
<polygon fill="#000000" stroke="#000000" points="219,-81.3565 227,-81.3564 227.0001,-89.3564 219.0001,-89.3565 219,-81.3565"/>
<polyline fill="none" stroke="#000000" points="223.0001,-89.3565 223.0001,-91.3565 "/>
<text text-anchor="middle" x="261" y="-102.8" font-family="Times,serif" font-size="14.00" fill="#000000">methodlist #1</text>
</g>
<!-- 0x408708 -->
<g id="node10" class="node">
<title>0x408708</title>
<polygon fill="#000000" stroke="transparent" points="317,-52.5 317,-73.5 388,-73.5 388,-52.5 317,-52.5"/>
<polygon fill="none" stroke="#000000" points="317,-52.5 317,-73.5 388,-73.5 388,-52.5 317,-52.5"/>
<text text-anchor="start" x="323.5" y="-59.3" font-family="Times,serif" font-size="14.00" fill="#ffffff">methodlist</text>
<polygon fill="none" stroke="#000000" points="317,-29.5 317,-50.5 370,-50.5 370,-29.5 317,-29.5"/>
<text text-anchor="start" x="320" y="-36.3" font-family="Times,serif" font-size="14.00" fill="#000000">category</text>
<polygon fill="#daa520" stroke="transparent" points="372,-29.5 372,-50.5 388,-50.5 388,-29.5 372,-29.5"/>
<polygon fill="none" stroke="#000000" points="372,-29.5 372,-50.5 388,-50.5 388,-29.5 372,-29.5"/>
<text text-anchor="start" x="375" y="-36.3" font-family="Times,serif" font-size="14.00" fill="#ffffff">Y</text>
<polygon fill="#fff8dc" stroke="transparent" points="317,-6.5 317,-27.5 388,-27.5 388,-6.5 317,-6.5"/>
<polygon fill="none" stroke="#000000" points="317,-6.5 317,-27.5 388,-27.5 388,-6.5 317,-6.5"/>
<text text-anchor="start" x="343" y="-13.3" font-family="Times,serif" font-size="14.00" fill="#000000">foo</text>
<polygon fill="none" stroke="#000000" points="313.5,-4 313.5,-77 390.5,-77 390.5,-4 313.5,-4"/>
</g>
<!-- 0xa99150&#45;&gt;0x408708 -->
<g id="edge13" class="edge">
<title>0xa99150&#45;&gt;0x408708</title>
<path fill="none" stroke="#000000" d="M250.3286,-141.9899C266.87,-136.16 287.6602,-126.9948 303,-114 311.1583,-107.0889 318.5072,-98.4907 324.8825,-89.637"/>
<polygon fill="#000000" stroke="#000000" points="327.3862,-78.8635 333.9962,-83.37 329.4898,-89.98 322.8798,-85.4735 327.3862,-78.8635"/>
<polyline fill="none" stroke="#000000" points="326.1848,-87.7268 325.0582,-89.3793 "/>
<text text-anchor="middle" x="355" y="-102.8" font-family="Times,serif" font-size="14.00" fill="#000000">methodlist #2</text>
</g>
<!-- 0x4082f0&#45;&gt;0x4082f0 -->
<g id="edge14" class="edge">
<title>0x4082f0:B.callFoos&#45;&gt;0x4082f0:B.foo</title>
<path fill="none" stroke="#000000" stroke-width="2" d="M100.1867,-50.7858C105.8318,-76.7373 104.7695,-114 97,-114 89.9248,-114 88.4117,-68.8856 92.4605,-37.6858"/>
<polygon fill="#000000" stroke="#000000" stroke-width="2" points="95.9307,-38.1496 94.0469,-27.7236 89.0178,-37.0488 95.9307,-38.1496"/>
</g>
<!-- 0x4082f0&#45;&gt;0x408608 -->
<!-- 0x4082f0&#45;&gt;0x408608 -->
<g id="edge15" class="edge">
<title>0x4082f0:B.callFoos&#45;&gt;0x408608:X.foo</title>
<path fill="none" stroke="#000000" stroke-width="2" d="M130,-39.5C153.9393,-39.5 159.1043,-22.3591 177.91,-17.6722"/>
<polygon fill="#000000" stroke="#000000" stroke-width="2" points="178.4707,-21.1307 188,-16.5 177.6629,-14.1774 178.4707,-21.1307"/>
</g>
<!-- 0x4082f0&#45;&gt;0x408708 -->
<g id="edge16" class="edge">
<title>0x4082f0:B.callFoos&#45;&gt;0x408708:Y.foo</title>
<path fill="none" stroke="#000000" stroke-width="2" d="M130,-39.5C166.1205,-39.5 144.0379,-89.674 176,-106.5 212.5748,-125.7543 233.557,-127.7658 269,-106.5 304.5324,-85.1806 277.3352,-27.6398 307.0197,-17.9074"/>
<polygon fill="#000000" stroke="#000000" stroke-width="2" points="307.5867,-21.3622 317,-16.5 306.6092,-14.4308 307.5867,-21.3622"/>
</g>
<!-- 0x408608&#45;&gt;0x408708 -->
</g>
</svg>
