<?xml version="1.0" encoding="UTF-8" standalone="no"?>
<!DOCTYPE svg PUBLIC "-//W3C//DTD SVG 1.1//EN"
 "http://www.w3.org/Graphics/SVG/1.1/DTD/svg11.dtd">
<!-- Generated by graphviz version 2.40.1 (20161225.0304)
 -->
<!-- Title: mulle_classhierarchy Pages: 1 -->
<svg width="315pt" height="240pt"
 viewBox="0.00 0.00 315.00 240.00" xmlns="http://www.w3.org/2000/svg" xmlns:xlink="http://www.w3.org/1999/xlink">
<g id="graph0" class="graph" transform="scale(1 1) rotate(0) translate(4 236)">
<title>mulle_classhierarchy</title>
<polygon fill="#ffffff" stroke="transparent" points="-4,4 -4,-236 311,-236 311,4 -4,4"/>
<!-- 0xa98050 -->
<g id="node1" class="node">
<title>0xa98050</title>
<polygon fill="#daa520" stroke="transparent" points="19,-203 19,-224 35,-224 35,-203 19,-203"/>
<polygon fill="none" stroke="#000000" points="19,-203 19,-224 35,-224 35,-203 19,-203"/>
<text text-anchor="start" x="22" y="-209.8" font-family="Times,serif" font-size="14.00" fill="#ffffff">A</text>
<polygon fill="none" stroke="#000000" points="16,-200.5 16,-227.5 38,-227.5 38,-200.5 16,-200.5"/>
</g>
<!-- 0xa99150 -->
<g id="node2" class="node">
<title>0xa99150</title>
<polygon fill="#daa520" stroke="transparent" points="102,-116 102,-137 118,-137 118,-116 102,-116"/>
<polygon fill="none" stroke="#000000" points="102,-116 102,-137 118,-137 118,-116 102,-116"/>
<text text-anchor="start" x="105" y="-122.8" font-family="Times,serif" font-size="14.00" fill="#ffffff">B</text>
<polygon fill="none" stroke="#000000" points="99,-113.5 99,-140.5 121,-140.5 121,-113.5 99,-113.5"/>
</g>
<!-- 0xa98050&#45;&gt;0xa99150 -->
<g id="edge1" class="edge">
<title>0xa98050&#45;&gt;0xa99150</title>
<path fill="none" stroke="#000000" d="M33.4068,-186.2711C36.2703,-178.1285 40.3243,-169.6366 46,-163 55.7771,-151.5676 70.1386,-143.0258 82.781,-137.1387"/>
<polygon fill="#000000" stroke="#000000" points="30.0452,-185.2957 30.4754,-195.8818 36.7406,-187.3379 30.0452,-185.2957"/>
<text text-anchor="middle" x="76" y="-166.8" font-family="Times,serif" font-size="14.00" fill="#000000"> superclass</text>
</g>
<!-- 0x408608 -->
<g id="node5" class="node">
<title>0x408608</title>
<polygon fill="#000000" stroke="transparent" points="20,-30 20,-51 91,-51 91,-30 20,-30"/>
<polygon fill="none" stroke="#000000" points="20,-30 20,-51 91,-51 91,-30 20,-30"/>
<text text-anchor="start" x="26.5" y="-36.8" font-family="Times,serif" font-size="14.00" fill="#ffffff">methodlist</text>
<polygon fill="none" stroke="#000000" points="20,-7 20,-28 73,-28 73,-7 20,-7"/>
<text text-anchor="start" x="23" y="-13.8" font-family="Times,serif" font-size="14.00" fill="#000000">category</text>
<polygon fill="#daa520" stroke="transparent" points="75,-7 75,-28 91,-28 91,-7 75,-7"/>
<polygon fill="none" stroke="#000000" points="75,-7 75,-28 91,-28 91,-7 75,-7"/>
<text text-anchor="start" x="78" y="-13.8" font-family="Times,serif" font-size="14.00" fill="#ffffff">X</text>
<polygon fill="none" stroke="#000000" points="16.5,-4 16.5,-54 93.5,-54 93.5,-4 16.5,-4"/>
</g>
<!-- 0xa99150&#45;&gt;0x408608 -->
<g id="edge4" class="edge">
<title>0xa99150&#45;&gt;0x408608</title>
<path fill="none" stroke="#000000" d="M83.2901,-108.7247C77.4823,-103.6066 71.9133,-97.6116 68,-91 63.9037,-84.0791 61.0869,-76.0534 59.1528,-68.1185"/>
<polygon fill="#000000" stroke="#000000" points="62.5607,-67.3126 57.1452,-58.2065 55.7,-68.7023 62.5607,-67.3126"/>
<text text-anchor="middle" x="106" y="-79.8" font-family="Times,serif" font-size="14.00" fill="#000000">methodlist #1</text>
</g>
<!-- 0x408708 -->
<g id="node6" class="node">
<title>0x408708</title>
<polygon fill="#000000" stroke="transparent" points="131,-30 131,-51 202,-51 202,-30 131,-30"/>
<polygon fill="none" stroke="#000000" points="131,-30 131,-51 202,-51 202,-30 131,-30"/>
<text text-anchor="start" x="137.5" y="-36.8" font-family="Times,serif" font-size="14.00" fill="#ffffff">methodlist</text>
<polygon fill="none" stroke="#000000" points="131,-7 131,-28 184,-28 184,-7 131,-7"/>
<text text-anchor="start" x="134" y="-13.8" font-family="Times,serif" font-size="14.00" fill="#000000">category</text>
<polygon fill="#daa520" stroke="transparent" points="186,-7 186,-28 202,-28 202,-7 186,-7"/>
<polygon fill="none" stroke="#000000" points="186,-7 186,-28 202,-28 202,-7 186,-7"/>
<text text-anchor="start" x="189" y="-13.8" font-family="Times,serif" font-size="14.00" fill="#ffffff">Y</text>
<polygon fill="none" stroke="#000000" points="127.5,-4 127.5,-54 204.5,-54 204.5,-4 127.5,-4"/>
</g>
<!-- 0xa99150&#45;&gt;0x408708 -->
<g id="edge5" class="edge">
<title>0xa99150&#45;&gt;0x408708</title>
<path fill="none" stroke="#000000" d="M129.9637,-108.8026C135.0398,-103.4394 140.1425,-97.3072 144,-91 148.3637,-83.8651 152.0311,-75.7391 155.0434,-67.7729"/>
<polygon fill="#000000" stroke="#000000" points="158.3896,-68.8071 158.3956,-58.2123 151.7839,-66.4909 158.3896,-68.8071"/>
<text text-anchor="middle" x="189" y="-79.8" font-family="Times,serif" font-size="14.00" fill="#000000">methodlist #2</text>
</g>
<!-- 0xa98590 -->
<g id="node3" class="node">
<title>0xa98590</title>
<polygon fill="#daa520" stroke="transparent" points="103,-203 103,-224 117,-224 117,-203 103,-203"/>
<polygon fill="none" stroke="#000000" points="103,-203 103,-224 117,-224 117,-203 103,-203"/>
<text text-anchor="start" x="106" y="-209.8" font-family="Times,serif" font-size="14.00" fill="#ffffff">P</text>
<polygon fill="none" stroke="#000000" points="100,-200.5 100,-227.5 120,-227.5 120,-200.5 100,-200.5"/>
</g>
<!-- 0xa98590&#45;&gt;0xa99150 -->
<g id="edge2" class="edge">
<title>0xa98590&#45;&gt;0xa99150</title>
<path fill="none" stroke="#000000" d="M110,-185.8156C110,-172.4102 110,-156.7801 110,-145.0034"/>
<polygon fill="#000000" stroke="#000000" points="106.5001,-185.9735 110,-195.9735 113.5001,-185.9736 106.5001,-185.9735"/>
<text text-anchor="middle" x="156.5" y="-166.8" font-family="Times,serif" font-size="14.00" fill="#000000"> protocolclass #0</text>
</g>
<!-- 0xa98af0 -->
<g id="node4" class="node">
<title>0xa98af0</title>
<polygon fill="#daa520" stroke="transparent" points="218,-203 218,-224 234,-224 234,-203 218,-203"/>
<polygon fill="none" stroke="#000000" points="218,-203 218,-224 234,-224 234,-203 218,-203"/>
<text text-anchor="start" x="221" y="-209.8" font-family="Times,serif" font-size="14.00" fill="#ffffff">Q</text>
<polygon fill="none" stroke="#000000" points="215,-200.5 215,-227.5 237,-227.5 237,-200.5 215,-200.5"/>
</g>
<!-- 0xa98af0&#45;&gt;0xa99150 -->
<g id="edge3" class="edge">
<title>0xa98af0&#45;&gt;0xa99150</title>
<path fill="none" stroke="#000000" d="M218.6711,-186.349C215.3321,-177.9772 210.6019,-169.3334 204,-163 185.7145,-145.4582 157.9863,-136.2386 137.3786,-131.5414"/>
<polygon fill="#000000" stroke="#000000" points="215.3986,-187.5948 221.9806,-195.8971 222.0126,-185.3023 215.3986,-187.5948"/>
<text text-anchor="middle" x="260.5" y="-166.8" font-family="Times,serif" font-size="14.00" fill="#000000"> protocolclass #1</text>
</g>
</g>
</svg>
