<svg xmlns="http://www.w3.org/2000/svg" xmlns:xlink="http://www.w3.org/1999/xlink" width="420" height="320" viewBox="0 0 315 240"><g id="graph0" class="graph" transform="scale(1 1) rotate(0) translate(4 236)"><title>mulle_classhierarchy</title><polygon fill="#fff" stroke="transparent" points="-4 4 -4 -236 311 -236 311 4 -4 4"/><g id="node1" class="node"><title>0xa98050</title><polygon fill="#daa520" stroke="transparent" points="19 -203 19 -224 35 -224 35 -203 19 -203"/><polygon fill="none" stroke="#000" points="19 -203 19 -224 35 -224 35 -203 19 -203"/><text x="22" y="-209.8" fill="#fff" font-family="Times,serif" font-size="14" text-anchor="start">A</text><polygon fill="none" stroke="#000" points="16 -200.5 16 -227.5 38 -227.5 38 -200.5 16 -200.5"/></g><g id="node2" class="node"><title>0xa99150</title><polygon fill="#daa520" stroke="transparent" points="102 -116 102 -137 118 -137 118 -116 102 -116"/><polygon fill="none" stroke="#000" points="102 -116 102 -137 118 -137 118 -116 102 -116"/><text x="105" y="-122.8" fill="#fff" font-family="Times,serif" font-size="14" text-anchor="start">B</text><polygon fill="none" stroke="#000" points="99 -113.5 99 -140.5 121 -140.5 121 -113.5 99 -113.5"/></g><g id="edge1" class="edge"><title>0xa98050-&gt;0xa99150</title><path fill="none" stroke="#000" d="M33.4068,-186.2711C36.2703,-178.1285 40.3243,-169.6366 46,-163 55.7771,-151.5676 70.1386,-143.0258 82.781,-137.1387"/><polygon fill="#000" stroke="#000" points="30.045 -185.296 30.475 -195.882 36.741 -187.338 30.045 -185.296"/><text x="76" y="-166.8" fill="#000" font-family="Times,serif" font-size="14" text-anchor="middle">superclass</text></g><g id="node5" class="node"><title>0x408608</title><polygon fill="#000" stroke="transparent" points="20 -30 20 -51 91 -51 91 -30 20 -30"/><polygon fill="none" stroke="#000" points="20 -30 20 -51 91 -51 91 -30 20 -30"/><text x="26.5" y="-36.8" fill="#fff" font-family="Times,serif" font-size="14" text-anchor="start">methodlist</text><polygon fill="none" stroke="#000" points="20 -7 20 -28 73 -28 73 -7 20 -7"/><text x="23" y="-13.8" fill="#000" font-family="Times,serif" font-size="14" text-anchor="start">category</text><polygon fill="#daa520" stroke="transparent" points="75 -7 75 -28 91 -28 91 -7 75 -7"/><polygon fill="none" stroke="#000" points="75 -7 75 -28 91 -28 91 -7 75 -7"/><text x="78" y="-13.8" fill="#fff" font-family="Times,serif" font-size="14" text-anchor="start">X</text><polygon fill="none" stroke="#000" points="16.5 -4 16.5 -54 93.5 -54 93.5 -4 16.5 -4"/></g><g id="edge4" class="edge"><title>0xa99150-&gt;0x408608</title><path fill="none" stroke="#000" d="M83.2901,-108.7247C77.4823,-103.6066 71.9133,-97.6116 68,-91 63.9037,-84.0791 61.0869,-76.0534 59.1528,-68.1185"/><polygon fill="#000" stroke="#000" points="62.561 -67.313 57.145 -58.206 55.7 -68.702 62.561 -67.313"/><text x="106" y="-79.8" fill="#000" font-family="Times,serif" font-size="14" text-anchor="middle">methodlist #1</text></g><g id="node6" class="node"><title>0x408708</title><polygon fill="#000" stroke="transparent" points="131 -30 131 -51 202 -51 202 -30 131 -30"/><polygon fill="none" stroke="#000" points="131 -30 131 -51 202 -51 202 -30 131 -30"/><text x="137.5" y="-36.8" fill="#fff" font-family="Times,serif" font-size="14" text-anchor="start">methodlist</text><polygon fill="none" stroke="#000" points="131 -7 131 -28 184 -28 184 -7 131 -7"/><text x="134" y="-13.8" fill="#000" font-family="Times,serif" font-size="14" text-anchor="start">category</text><polygon fill="#daa520" stroke="transparent" points="186 -7 186 -28 202 -28 202 -7 186 -7"/><polygon fill="none" stroke="#000" points="186 -7 186 -28 202 -28 202 -7 186 -7"/><text x="189" y="-13.8" fill="#fff" font-family="Times,serif" font-size="14" text-anchor="start">Y</text><polygon fill="none" stroke="#000" points="127.5 -4 127.5 -54 204.5 -54 204.5 -4 127.5 -4"/></g><g id="edge5" class="edge"><title>0xa99150-&gt;0x408708</title><path fill="none" stroke="#000" d="M129.9637,-108.8026C135.0398,-103.4394 140.1425,-97.3072 144,-91 148.3637,-83.8651 152.0311,-75.7391 155.0434,-67.7729"/><polygon fill="#000" stroke="#000" points="158.39 -68.807 158.396 -58.212 151.784 -66.491 158.39 -68.807"/><text x="189" y="-79.8" fill="#000" font-family="Times,serif" font-size="14" text-anchor="middle">methodlist #2</text></g><g id="node3" class="node"><title>0xa98590</title><polygon fill="#daa520" stroke="transparent" points="103 -203 103 -224 117 -224 117 -203 103 -203"/><polygon fill="none" stroke="#000" points="103 -203 103 -224 117 -224 117 -203 103 -203"/><text x="106" y="-209.8" fill="#fff" font-family="Times,serif" font-size="14" text-anchor="start">P</text><polygon fill="none" stroke="#000" points="100 -200.5 100 -227.5 120 -227.5 120 -200.5 100 -200.5"/></g><g id="edge2" class="edge"><title>0xa98590-&gt;0xa99150</title><path fill="none" stroke="#000" d="M110,-185.8156C110,-172.4102 110,-156.7801 110,-145.0034"/><polygon fill="#000" stroke="#000" points="106.5 -185.974 110 -195.974 113.5 -185.974 106.5 -185.974"/><text x="156.5" y="-166.8" fill="#000" font-family="Times,serif" font-size="14" text-anchor="middle">protocolclass #0</text></g><g id="node4" class="node"><title>0xa98af0</title><polygon fill="#daa520" stroke="transparent" points="218 -203 218 -224 234 -224 234 -203 218 -203"/><polygon fill="none" stroke="#000" points="218 -203 218 -224 234 -224 234 -203 218 -203"/><text x="221" y="-209.8" fill="#fff" font-family="Times,serif" font-size="14" text-anchor="start">Q</text><polygon fill="none" stroke="#000" points="215 -200.5 215 -227.5 237 -227.5 237 -200.5 215 -200.5"/></g><g id="edge3" class="edge"><title>0xa98af0-&gt;0xa99150</title><path fill="none" stroke="#000" d="M218.6711,-186.349C215.3321,-177.9772 210.6019,-169.3334 204,-163 185.7145,-145.4582 157.9863,-136.2386 137.3786,-131.5414"/><polygon fill="#000" stroke="#000" points="215.399 -187.595 221.981 -195.897 222.013 -185.302 215.399 -187.595"/><text x="260.5" y="-166.8" fill="#000" font-family="Times,serif" font-size="14" text-anchor="middle">protocolclass #1</text></g></g></svg>