<?xml version="1.0" encoding="UTF-8"?><svg xmlns="http://www.w3.org/2000/svg" xmlns:xlink="http://www.w3.org/1999/xlink" fill-opacity="1" color-rendering="auto" color-interpolation="auto" text-rendering="auto" stroke="black" stroke-linecap="square" width="366" stroke-miterlimit="10" shape-rendering="auto" stroke-opacity="1" fill="black" stroke-dasharray="none" font-weight="normal" stroke-width="1" height="217" font-family="'Dialog'" font-style="normal" stroke-linejoin="miter" font-size="12px" stroke-dashoffset="0" image-rendering="auto">
  <!--Generated by ySVG 2.5-->
  <defs id="genericDefs"/>
  <g>
    <defs id="defs1">
      <clipPath clipPathUnits="userSpaceOnUse" id="clipPath1">
        <path d="M0 0 L366 0 L366 217 L0 217 L0 0 Z"/>
      </clipPath>
      <clipPath clipPathUnits="userSpaceOnUse" id="clipPath2">
        <path d="M371 163 L737 163 L737 380 L371 380 L371 163 Z"/>
      </clipPath>
    </defs>
    <g fill="white" text-rendering="geometricPrecision" shape-rendering="geometricPrecision" transform="translate(-371,-163)" stroke="white">
      <rect x="371" width="366" height="217" y="163" clip-path="url(#clipPath2)" stroke="none"/>
    </g>
    <g stroke-linecap="round" transform="matrix(1,0,0,1,-371,-163)" stroke-dashoffset="2" text-rendering="geometricPrecision" shape-rendering="geometricPrecision" stroke-dasharray="0,4" stroke-miterlimit="1.45">
      <ellipse rx="168" fill="none" ry="84" clip-path="url(#clipPath2)" cx="554" cy="281"/>
    </g>
    <g text-rendering="geometricPrecision" stroke-miterlimit="1.45" shape-rendering="geometricPrecision" font-family="sans-serif" transform="matrix(1,0,0,1,-371,-163)" stroke-linecap="butt">
      <text x="534.459" xml:space="preserve" y="191.1699" clip-path="url(#clipPath2)" stroke="none">Object</text>
    </g>
    <g fill="rgb(153,204,255)" text-rendering="geometricPrecision" shape-rendering="geometricPrecision" transform="matrix(1,0,0,1,-371,-163)" stroke="rgb(153,204,255)">
      <circle r="29.5" clip-path="url(#clipPath2)" cx="446.5" cy="272.5" stroke="none"/>
    </g>
    <g text-rendering="geometricPrecision" stroke-miterlimit="1.45" shape-rendering="geometricPrecision" transform="matrix(1,0,0,1,-371,-163)" stroke-linecap="butt">
      <circle fill="none" r="29.5" clip-path="url(#clipPath2)" cx="446.5" cy="272.5"/>
      <text x="430.7148" xml:space="preserve" y="276.6543" clip-path="url(#clipPath2)" font-family="sans-serif" stroke="none">Class</text>
    </g>
    <g fill="rgb(204,255,255)" text-rendering="geometricPrecision" shape-rendering="geometricPrecision" transform="matrix(1,0,0,1,-371,-163)" stroke="rgb(204,255,255)">
      <circle r="29.5" clip-path="url(#clipPath2)" cx="658.5" cy="294.5" stroke="none"/>
    </g>
    <g text-rendering="geometricPrecision" stroke-miterlimit="1.45" shape-rendering="geometricPrecision" transform="matrix(1,0,0,1,-371,-163)" stroke-linecap="butt">
      <circle fill="none" r="29.5" clip-path="url(#clipPath2)" cx="658.5" cy="294.5"/>
      <text x="632.9795" xml:space="preserve" y="298.6543" clip-path="url(#clipPath2)" font-family="sans-serif" stroke="none">Instance</text>
      <path fill="none" d="M475.8424 275.545 L621.2003 290.6293" clip-path="url(#clipPath2)"/>
      <path d="M629.1576 291.455 L617.7378 285.2431 L620.2057 290.5261 L616.7056 295.1897 Z" clip-path="url(#clipPath2)" stroke="none"/>
      <rect x="531.4922" y="274.5156" clip-path="url(#clipPath2)" fill="white" width="42.0156" height="17.9688" stroke="none"/>
      <text x="533.4922" xml:space="preserve" y="287.6543" clip-path="url(#clipPath2)" font-family="sans-serif" stroke="none">+alloc</text>
    </g>
  </g>
</svg>
