<?xml version="1.0" encoding="UTF-8"?><svg xmlns="http://www.w3.org/2000/svg" xmlns:xlink="http://www.w3.org/1999/xlink" fill-opacity="1" color-rendering="auto" color-interpolation="auto" text-rendering="auto" stroke="black" stroke-linecap="square" width="737" stroke-miterlimit="10" shape-rendering="auto" stroke-opacity="1" fill="black" stroke-dasharray="none" font-weight="normal" stroke-width="1" height="198" font-family="'Dialog'" font-style="normal" stroke-linejoin="miter" font-size="12px" stroke-dashoffset="0" image-rendering="auto">
  <!--Generated by ySVG 2.5-->
  <defs id="genericDefs"/>
  <g>
    <defs id="defs1">
      <clipPath clipPathUnits="userSpaceOnUse" id="clipPath1">
        <path d="M0 0 L737 0 L737 198 L0 198 L0 0 Z"/>
      </clipPath>
      <clipPath clipPathUnits="userSpaceOnUse" id="clipPath2">
        <path d="M188 165 L925 165 L925 363 L188 363 L188 165 Z"/>
      </clipPath>
    </defs>
    <g fill="white" text-rendering="geometricPrecision" shape-rendering="geometricPrecision" transform="translate(-188,-165)" stroke="white">
      <rect x="188" width="737" height="198" y="165" clip-path="url(#clipPath2)" stroke="none"/>
    </g>
    <g fill="rgb(153,204,255)" text-rendering="geometricPrecision" shape-rendering="geometricPrecision" transform="matrix(1,0,0,1,-188,-165)" stroke="rgb(153,204,255)">
      <path d="M321.7002 180.5 L391 180.5 L383.2998 211.5 L314 211.5 Z" fill-rule="evenodd" clip-path="url(#clipPath2)" stroke="none"/>
    </g>
    <g text-rendering="geometricPrecision" stroke-miterlimit="1.45" shape-rendering="geometricPrecision" transform="matrix(1,0,0,1,-188,-165)" stroke-linecap="butt">
      <path fill="none" d="M321.7002 180.5 L391 180.5 L383.2998 211.5 L314 211.5 Z" fill-rule="evenodd" clip-path="url(#clipPath2)"/>
      <text x="332.7002" font-size="11px" y="200.268" clip-path="url(#clipPath2)" font-family="'Noto Sans Mono'" stroke="none" xml:space="preserve">+alloc</text>
    </g>
    <g fill="rgb(204,255,255)" text-rendering="geometricPrecision" shape-rendering="geometricPrecision" transform="matrix(1,0,0,1,-188,-165)" stroke="rgb(204,255,255)">
      <ellipse rx="38.5" ry="40.5" clip-path="url(#clipPath2)" cx="352.5" cy="307.5" stroke="none"/>
    </g>
    <g text-rendering="geometricPrecision" stroke-miterlimit="1.45" shape-rendering="geometricPrecision" transform="matrix(1,0,0,1,-188,-165)" stroke-linecap="butt">
      <ellipse rx="38.5" fill="none" ry="40.5" clip-path="url(#clipPath2)" cx="352.5" cy="307.5"/>
      <text x="346.549" font-size="22px" y="316.036" clip-path="url(#clipPath2)" font-family="'Noto Sans Display SemiBold'" stroke="none" font-weight="bold" xml:space="preserve">1</text>
    </g>
    <g fill="rgb(204,255,255)" text-rendering="geometricPrecision" shape-rendering="geometricPrecision" transform="matrix(1,0,0,1,-188,-165)" stroke="rgb(204,255,255)">
      <path d="M428.7 180.5 L498 180.5 L490.3 211.5 L421 211.5 Z" fill-rule="evenodd" clip-path="url(#clipPath2)" stroke="none"/>
    </g>
    <g text-rendering="geometricPrecision" stroke-miterlimit="1.45" shape-rendering="geometricPrecision" transform="matrix(1,0,0,1,-188,-165)" stroke-linecap="butt">
      <path fill="none" d="M428.7 180.5 L498 180.5 L490.3 211.5 L421 211.5 Z" fill-rule="evenodd" clip-path="url(#clipPath2)"/>
      <text x="436.4002" font-size="11px" y="200.268" clip-path="url(#clipPath2)" font-family="'Noto Sans Mono'" stroke="none" xml:space="preserve">-retain</text>
    </g>
    <g fill="rgb(204,255,255)" text-rendering="geometricPrecision" shape-rendering="geometricPrecision" transform="matrix(1,0,0,1,-188,-165)" stroke="rgb(204,255,255)">
      <ellipse rx="38.5" ry="40.5" clip-path="url(#clipPath2)" cx="463" cy="307.5" stroke="none"/>
    </g>
    <g text-rendering="geometricPrecision" stroke-miterlimit="1.45" shape-rendering="geometricPrecision" transform="matrix(1,0,0,1,-188,-165)" stroke-linecap="butt">
      <ellipse rx="38.5" fill="none" ry="40.5" clip-path="url(#clipPath2)" cx="463" cy="307.5"/>
      <text x="457.049" font-size="22px" y="316.036" clip-path="url(#clipPath2)" font-family="'Noto Sans Display SemiBold'" stroke="none" font-weight="bold" xml:space="preserve">2</text>
    </g>
    <g fill="rgb(255,204,153)" text-rendering="geometricPrecision" shape-rendering="geometricPrecision" transform="matrix(1,0,0,1,-188,-165)" stroke="rgb(255,204,153)">
      <path d="M542.7 180.5 L612 180.5 L604.3 211.5 L535 211.5 Z" fill-rule="evenodd" clip-path="url(#clipPath2)" stroke="none"/>
    </g>
    <g text-rendering="geometricPrecision" stroke-miterlimit="1.45" shape-rendering="geometricPrecision" transform="matrix(1,0,0,1,-188,-165)" stroke-linecap="butt">
      <path fill="none" d="M542.7 180.5 L612 180.5 L604.3 211.5 L535 211.5 Z" fill-rule="evenodd" clip-path="url(#clipPath2)"/>
      <text x="547.1002" font-size="11px" y="200.268" clip-path="url(#clipPath2)" font-family="'Noto Sans Mono'" stroke="none" xml:space="preserve">-release</text>
    </g>
    <g fill="rgb(204,255,255)" text-rendering="geometricPrecision" shape-rendering="geometricPrecision" transform="matrix(1,0,0,1,-188,-165)" stroke="rgb(204,255,255)">
      <ellipse rx="38.5" ry="40.5" clip-path="url(#clipPath2)" cx="573.5" cy="307.5" stroke="none"/>
    </g>
    <g text-rendering="geometricPrecision" stroke-miterlimit="1.45" shape-rendering="geometricPrecision" transform="matrix(1,0,0,1,-188,-165)" stroke-linecap="butt">
      <ellipse rx="38.5" fill="none" ry="40.5" clip-path="url(#clipPath2)" cx="573.5" cy="307.5"/>
      <text x="567.549" font-size="22px" y="316.036" clip-path="url(#clipPath2)" font-family="'Noto Sans Display SemiBold'" stroke="none" font-weight="bold" xml:space="preserve">1</text>
    </g>
    <g fill="rgb(255,204,153)" text-rendering="geometricPrecision" shape-rendering="geometricPrecision" transform="matrix(1,0,0,1,-188,-165)" stroke="rgb(255,204,153)">
      <path d="M654.7 180.5 L724 180.5 L716.3 211.5 L647 211.5 Z" fill-rule="evenodd" clip-path="url(#clipPath2)" stroke="none"/>
    </g>
    <g text-rendering="geometricPrecision" stroke-miterlimit="1.45" shape-rendering="geometricPrecision" transform="matrix(1,0,0,1,-188,-165)" stroke-linecap="butt">
      <path fill="none" d="M654.7 180.5 L724 180.5 L716.3 211.5 L647 211.5 Z" fill-rule="evenodd" clip-path="url(#clipPath2)"/>
      <text x="659.1002" font-size="11px" y="200.268" clip-path="url(#clipPath2)" font-family="'Noto Sans Mono'" stroke="none" xml:space="preserve">-release</text>
    </g>
    <g fill="rgb(255,153,204)" text-rendering="geometricPrecision" shape-rendering="geometricPrecision" transform="matrix(1,0,0,1,-188,-165)" stroke="rgb(255,153,204)">
      <ellipse rx="38.5" ry="40.5" clip-path="url(#clipPath2)" cx="685.5" cy="307.5" stroke="none"/>
    </g>
    <g text-rendering="geometricPrecision" stroke-miterlimit="1.45" shape-rendering="geometricPrecision" transform="matrix(1,0,0,1,-188,-165)" stroke-linecap="butt">
      <ellipse rx="38.5" fill="none" ry="40.5" clip-path="url(#clipPath2)" cx="685.5" cy="307.5"/>
      <text x="679.549" font-size="22px" y="316.036" clip-path="url(#clipPath2)" font-family="'Noto Sans Display SemiBold'" stroke="none" font-weight="bold" xml:space="preserve">0</text>
    </g>
    <g fill="rgb(255,153,204)" text-rendering="geometricPrecision" shape-rendering="geometricPrecision" transform="matrix(1,0,0,1,-188,-165)" stroke="rgb(255,153,204)">
      <path d="M790.8875 180.5 L860.1875 180.5 L852.4875 211.5 L783.1875 211.5 Z" fill-rule="evenodd" clip-path="url(#clipPath2)" stroke="none"/>
    </g>
    <g text-rendering="geometricPrecision" stroke-miterlimit="1.45" shape-rendering="geometricPrecision" transform="matrix(1,0,0,1,-188,-165)" stroke-linecap="butt">
      <path fill="none" d="M790.8875 180.5 L860.1875 180.5 L852.4875 211.5 L783.1875 211.5 Z" fill-rule="evenodd" clip-path="url(#clipPath2)"/>
      <text x="795.2877" font-size="11px" y="200.268" clip-path="url(#clipPath2)" font-family="'Noto Sans Mono'" stroke="none" xml:space="preserve">-dealloc</text>
      <ellipse stroke-linecap="round" clip-path="url(#clipPath2)" stroke-dashoffset="2" fill="none" rx="38.5" stroke-dasharray="0,4" cx="870.625" ry="40.5" cy="307.5"/>
    </g>
    <g stroke-linecap="butt" font-size="22px" transform="matrix(1,0,0,1,-188,-165)" fill="gray" text-rendering="geometricPrecision" font-family="'Noto Sans Display SemiBold'" shape-rendering="geometricPrecision" stroke="gray" font-weight="bold" stroke-miterlimit="1.45">
      <text x="864.674" xml:space="preserve" y="316.036" clip-path="url(#clipPath2)" stroke="none">0</text>
    </g>
    <g stroke-linecap="round" transform="matrix(1,0,0,1,-188,-165)" stroke-dashoffset="2" text-rendering="geometricPrecision" shape-rendering="geometricPrecision" stroke-dasharray="0,4" stroke-miterlimit="1.45">
      <ellipse rx="38.5" fill="none" ry="40.5" clip-path="url(#clipPath2)" cx="242" cy="307.5"/>
    </g>
    <g stroke-linecap="butt" font-size="22px" transform="matrix(1,0,0,1,-188,-165)" fill="gray" text-rendering="geometricPrecision" font-family="'Noto Sans Display SemiBold'" shape-rendering="geometricPrecision" stroke="gray" font-weight="bold" stroke-miterlimit="1.45">
      <text x="236.049" xml:space="preserve" y="316.036" clip-path="url(#clipPath2)" stroke="none">0</text>
    </g>
    <g fill="rgb(255,153,204)" text-rendering="geometricPrecision" shape-rendering="geometricPrecision" transform="matrix(1,0,0,1,-188,-165)" stroke="rgb(255,153,204)">
      <path d="M723.2625 180.5 L792.5625 180.5 L784.8625 211.5 L715.5625 211.5 Z" fill-rule="evenodd" clip-path="url(#clipPath2)" stroke="none"/>
    </g>
    <g text-rendering="geometricPrecision" stroke-miterlimit="1.45" shape-rendering="geometricPrecision" transform="matrix(1,0,0,1,-188,-165)" stroke-linecap="butt">
      <path fill="none" d="M723.2625 180.5 L792.5625 180.5 L784.8625 211.5 L715.5625 211.5 Z" fill-rule="evenodd" clip-path="url(#clipPath2)"/>
      <text x="724.3627" font-size="11px" y="200.268" clip-path="url(#clipPath2)" font-family="'Noto Sans Mono'" stroke="none" xml:space="preserve">-finalize</text>
      <path fill="none" d="M352.5 211.5073 L352.5 258.9841" clip-path="url(#clipPath2)"/>
      <path d="M352.5 266.9841 L357.5 254.9841 L352.5 257.9841 L347.5 254.9841 Z" clip-path="url(#clipPath2)" stroke="none"/>
      <path fill="none" d="M460.0964 211.5073 L461.9227 258.99" clip-path="url(#clipPath2)"/>
      <path d="M462.2302 266.9841 L466.7653 254.8008 L461.8843 257.9908 L456.7727 255.1851 Z" clip-path="url(#clipPath2)" stroke="none"/>
      <path fill="none" stroke-dasharray="0,4" d="M391 307.5 L424.5 307.5" stroke-dashoffset="2" clip-path="url(#clipPath2)" stroke-linecap="round"/>
      <path fill="none" d="M573.5 211.5073 L573.5 258.9841" clip-path="url(#clipPath2)"/>
      <path d="M573.5 266.9841 L578.5 254.9841 L573.5 257.9841 L568.5 254.9841 Z" clip-path="url(#clipPath2)" stroke="none"/>
      <path fill="none" stroke-dasharray="0,4" d="M501.5 307.5 L535 307.5" stroke-dashoffset="2" clip-path="url(#clipPath2)" stroke-linecap="round"/>
      <path fill="none" d="M685.5 211.5073 L685.5 258.9841" clip-path="url(#clipPath2)"/>
      <path d="M685.5 266.9841 L690.5 254.9841 L685.5 257.9841 L680.5 254.9841 Z" clip-path="url(#clipPath2)" stroke="none"/>
      <path fill="none" stroke-dasharray="0,4" d="M612 307.5 L647 307.5" stroke-dashoffset="2" clip-path="url(#clipPath2)" stroke-linecap="round"/>
      <path fill="none" d="M828.4857 211.4891 L851.2714 263.4044" clip-path="url(#clipPath2)"/>
      <path d="M854.4866 270.7299 L854.2422 257.7322 L850.8695 262.4888 L845.0854 261.7512 Z" clip-path="url(#clipPath2)" stroke="none"/>
      <path fill="none" stroke-dasharray="0,4" d="M724 307.5 L832.125 307.5" stroke-dashoffset="2" clip-path="url(#clipPath2)" stroke-linecap="round"/>
      <path fill="none" stroke-dasharray="0,4" d="M280.5 307.5 L314 307.5" stroke-dashoffset="2" clip-path="url(#clipPath2)" stroke-linecap="round"/>
    </g>
  </g>
</svg>
