<?xml version="1.0" encoding="UTF-8"?><svg xmlns="http://www.w3.org/2000/svg" xmlns:xlink="http://www.w3.org/1999/xlink" fill-opacity="1" color-rendering="auto" color-interpolation="auto" text-rendering="auto" stroke="black" stroke-linecap="square" width="780" stroke-miterlimit="10" shape-rendering="auto" stroke-opacity="1" fill="black" stroke-dasharray="none" font-weight="normal" stroke-width="1" height="285" font-family="'Dialog'" font-style="normal" stroke-linejoin="miter" font-size="12px" stroke-dashoffset="0" image-rendering="auto">
  <!--Generated by ySVG 2.5-->
  <defs id="genericDefs"/>
  <g>
    <defs id="defs1">
      <clipPath clipPathUnits="userSpaceOnUse" id="clipPath1">
        <path d="M0 0 L780 0 L780 285 L0 285 L0 0 Z"/>
      </clipPath>
      <clipPath clipPathUnits="userSpaceOnUse" id="clipPath2">
        <path d="M111 109 L891 109 L891 394 L111 394 L111 109 Z"/>
      </clipPath>
    </defs>
    <g fill="white" text-rendering="geometricPrecision" shape-rendering="geometricPrecision" transform="translate(-111,-109)" stroke="white">
      <rect x="111" width="780" height="285" y="109" clip-path="url(#clipPath2)" stroke="none"/>
    </g>
    <g fill="rgb(153,204,255)" text-rendering="geometricPrecision" shape-rendering="geometricPrecision" transform="matrix(1,0,0,1,-111,-109)" stroke="rgb(153,204,255)">
      <path d="M244.2 211.3125 L313.5 211.3125 L305.8 242.3125 L236.5 242.3125 Z" fill-rule="evenodd" clip-path="url(#clipPath2)" stroke="none"/>
    </g>
    <g text-rendering="geometricPrecision" stroke-miterlimit="1.45" shape-rendering="geometricPrecision" transform="matrix(1,0,0,1,-111,-109)" stroke-linecap="butt">
      <path fill="none" d="M244.2 211.3125 L313.5 211.3125 L305.8 242.3125 L236.5 242.3125 Z" fill-rule="evenodd" clip-path="url(#clipPath2)"/>
      <text x="255.2002" font-size="11px" y="231.0805" clip-path="url(#clipPath2)" font-family="'Noto Sans Mono'" stroke="none" xml:space="preserve">+alloc</text>
    </g>
    <g fill="rgb(204,255,255)" text-rendering="geometricPrecision" shape-rendering="geometricPrecision" transform="matrix(1,0,0,1,-111,-109)" stroke="rgb(204,255,255)">
      <ellipse rx="38.5" ry="40.5" clip-path="url(#clipPath2)" cx="275" cy="338.3125" stroke="none"/>
    </g>
    <g text-rendering="geometricPrecision" stroke-miterlimit="1.45" shape-rendering="geometricPrecision" transform="matrix(1,0,0,1,-111,-109)" stroke-linecap="butt">
      <ellipse rx="38.5" fill="none" ry="40.5" clip-path="url(#clipPath2)" cx="275" cy="338.3125"/>
      <text x="269.049" font-size="22px" y="346.8485" clip-path="url(#clipPath2)" font-family="'Noto Sans Display SemiBold'" stroke="none" font-weight="bold" xml:space="preserve">1</text>
    </g>
    <g fill="rgb(204,255,255)" text-rendering="geometricPrecision" shape-rendering="geometricPrecision" transform="matrix(1,0,0,1,-111,-109)" stroke="rgb(204,255,255)">
      <path d="M354.7 211.3125 L424 211.3125 L416.3 242.3125 L347 242.3125 Z" fill-rule="evenodd" clip-path="url(#clipPath2)" stroke="none"/>
    </g>
    <g text-rendering="geometricPrecision" stroke-miterlimit="1.45" shape-rendering="geometricPrecision" transform="matrix(1,0,0,1,-111,-109)" stroke-linecap="butt">
      <path fill="none" d="M354.7 211.3125 L424 211.3125 L416.3 242.3125 L347 242.3125 Z" fill-rule="evenodd" clip-path="url(#clipPath2)"/>
      <text x="362.4002" font-size="11px" y="231.0805" clip-path="url(#clipPath2)" font-family="'Noto Sans Mono'" stroke="none" xml:space="preserve">-retain</text>
    </g>
    <g fill="rgb(204,255,255)" text-rendering="geometricPrecision" shape-rendering="geometricPrecision" transform="matrix(1,0,0,1,-111,-109)" stroke="rgb(204,255,255)">
      <ellipse rx="38.5" ry="40.5" clip-path="url(#clipPath2)" cx="385.5" cy="338.3125" stroke="none"/>
    </g>
    <g text-rendering="geometricPrecision" stroke-miterlimit="1.45" shape-rendering="geometricPrecision" transform="matrix(1,0,0,1,-111,-109)" stroke-linecap="butt">
      <ellipse rx="38.5" fill="none" ry="40.5" clip-path="url(#clipPath2)" cx="385.5" cy="338.3125"/>
      <text x="379.549" font-size="22px" y="346.8485" clip-path="url(#clipPath2)" font-family="'Noto Sans Display SemiBold'" stroke="none" font-weight="bold" xml:space="preserve">2</text>
    </g>
    <g fill="rgb(255,204,153)" text-rendering="geometricPrecision" shape-rendering="geometricPrecision" transform="matrix(1,0,0,1,-111,-109)" stroke="rgb(255,204,153)">
      <path d="M575.7 211.3125 L645 211.3125 L637.3 242.3125 L568 242.3125 Z" fill-rule="evenodd" clip-path="url(#clipPath2)" stroke="none"/>
    </g>
    <g text-rendering="geometricPrecision" stroke-miterlimit="1.45" shape-rendering="geometricPrecision" transform="matrix(1,0,0,1,-111,-109)" stroke-linecap="butt">
      <path fill="none" d="M575.7 211.3125 L645 211.3125 L637.3 242.3125 L568 242.3125 Z" fill-rule="evenodd" clip-path="url(#clipPath2)"/>
      <text x="580.1002" font-size="11px" y="231.0805" clip-path="url(#clipPath2)" font-family="'Noto Sans Mono'" stroke="none" xml:space="preserve">-release</text>
    </g>
    <g fill="rgb(204,255,255)" text-rendering="geometricPrecision" shape-rendering="geometricPrecision" transform="matrix(1,0,0,1,-111,-109)" stroke="rgb(204,255,255)">
      <ellipse rx="38.5" ry="40.5" clip-path="url(#clipPath2)" cx="606.5" cy="338.3125" stroke="none"/>
    </g>
    <g text-rendering="geometricPrecision" stroke-miterlimit="1.45" shape-rendering="geometricPrecision" transform="matrix(1,0,0,1,-111,-109)" stroke-linecap="butt">
      <ellipse rx="38.5" fill="none" ry="40.5" clip-path="url(#clipPath2)" cx="606.5" cy="338.3125"/>
      <text x="600.549" font-size="22px" y="346.8485" clip-path="url(#clipPath2)" font-family="'Noto Sans Display SemiBold'" stroke="none" font-weight="bold" xml:space="preserve">1</text>
    </g>
    <g fill="rgb(255,204,153)" text-rendering="geometricPrecision" shape-rendering="geometricPrecision" transform="matrix(1,0,0,1,-111,-109)" stroke="rgb(255,204,153)">
      <path d="M687.7 211.3125 L757 211.3125 L749.3 242.3125 L680 242.3125 Z" fill-rule="evenodd" clip-path="url(#clipPath2)" stroke="none"/>
    </g>
    <g text-rendering="geometricPrecision" stroke-miterlimit="1.45" shape-rendering="geometricPrecision" transform="matrix(1,0,0,1,-111,-109)" stroke-linecap="butt">
      <path fill="none" d="M687.7 211.3125 L757 211.3125 L749.3 242.3125 L680 242.3125 Z" fill-rule="evenodd" clip-path="url(#clipPath2)"/>
      <text x="692.1002" font-size="11px" y="231.0805" clip-path="url(#clipPath2)" font-family="'Noto Sans Mono'" stroke="none" xml:space="preserve">-release</text>
    </g>
    <g fill="rgb(255,153,204)" text-rendering="geometricPrecision" shape-rendering="geometricPrecision" transform="matrix(1,0,0,1,-111,-109)" stroke="rgb(255,153,204)">
      <ellipse rx="38.5" ry="40.5" clip-path="url(#clipPath2)" cx="718.5" cy="338.3125" stroke="none"/>
    </g>
    <g text-rendering="geometricPrecision" stroke-miterlimit="1.45" shape-rendering="geometricPrecision" transform="matrix(1,0,0,1,-111,-109)" stroke-linecap="butt">
      <ellipse rx="38.5" fill="none" ry="40.5" clip-path="url(#clipPath2)" cx="718.5" cy="338.3125"/>
      <text x="712.549" font-size="22px" y="346.8485" clip-path="url(#clipPath2)" font-family="'Noto Sans Display SemiBold'" stroke="none" font-weight="bold" xml:space="preserve">0</text>
    </g>
    <g fill="rgb(255,153,204)" text-rendering="geometricPrecision" shape-rendering="geometricPrecision" transform="matrix(1,0,0,1,-111,-109)" stroke="rgb(255,153,204)">
      <path d="M756.8875 211.3125 L826.1875 211.3125 L818.4875 242.3125 L749.1875 242.3125 Z" fill-rule="evenodd" clip-path="url(#clipPath2)" stroke="none"/>
    </g>
    <g text-rendering="geometricPrecision" stroke-miterlimit="1.45" shape-rendering="geometricPrecision" transform="matrix(1,0,0,1,-111,-109)" stroke-linecap="butt">
      <path fill="none" d="M756.8875 211.3125 L826.1875 211.3125 L818.4875 242.3125 L749.1875 242.3125 Z" fill-rule="evenodd" clip-path="url(#clipPath2)"/>
      <text x="761.2877" font-size="11px" y="231.0805" clip-path="url(#clipPath2)" font-family="'Noto Sans Mono'" stroke="none" xml:space="preserve">-dealloc</text>
      <ellipse stroke-linecap="round" clip-path="url(#clipPath2)" stroke-dashoffset="2" fill="none" rx="38.5" stroke-dasharray="0,4" cx="836.625" ry="40.5" cy="338.3125"/>
    </g>
    <g stroke-linecap="butt" font-size="22px" transform="matrix(1,0,0,1,-111,-109)" fill="gray" text-rendering="geometricPrecision" font-family="'Noto Sans Display SemiBold'" shape-rendering="geometricPrecision" stroke="gray" font-weight="bold" stroke-miterlimit="1.45">
      <text x="830.674" xml:space="preserve" y="346.8485" clip-path="url(#clipPath2)" stroke="none">0</text>
    </g>
    <g stroke-linecap="round" transform="matrix(1,0,0,1,-111,-109)" stroke-dashoffset="2" text-rendering="geometricPrecision" shape-rendering="geometricPrecision" stroke-dasharray="0,4" stroke-miterlimit="1.45">
      <ellipse rx="38.5" fill="none" ry="40.5" clip-path="url(#clipPath2)" cx="164.5" cy="338.3125"/>
    </g>
    <g stroke-linecap="butt" font-size="22px" transform="matrix(1,0,0,1,-111,-109)" fill="gray" text-rendering="geometricPrecision" font-family="'Noto Sans Display SemiBold'" shape-rendering="geometricPrecision" stroke="gray" font-weight="bold" stroke-miterlimit="1.45">
      <text x="158.549" xml:space="preserve" y="346.8485" clip-path="url(#clipPath2)" stroke="none">0</text>
    </g>
    <g fill="rgb(255,153,204)" text-rendering="geometricPrecision" shape-rendering="geometricPrecision" transform="matrix(1,0,0,1,-111,-109)" stroke="rgb(255,153,204)">
      <path d="M465.2 211.3125 L534.5 211.3125 L526.8 242.3125 L457.5 242.3125 Z" fill-rule="evenodd" clip-path="url(#clipPath2)" stroke="none"/>
    </g>
    <g text-rendering="geometricPrecision" stroke-miterlimit="1.45" shape-rendering="geometricPrecision" transform="matrix(1,0,0,1,-111,-109)" stroke-linecap="butt">
      <path fill="none" d="M465.2 211.3125 L534.5 211.3125 L526.8 242.3125 L457.5 242.3125 Z" fill-rule="evenodd" clip-path="url(#clipPath2)"/>
      <text x="466.3002" font-size="11px" y="231.0805" clip-path="url(#clipPath2)" font-family="'Noto Sans Mono'" stroke="none" xml:space="preserve">-finalize</text>
    </g>
    <g fill="rgb(204,255,255)" text-rendering="geometricPrecision" shape-rendering="geometricPrecision" transform="matrix(1,0,0,1,-111,-109)" stroke="rgb(204,255,255)">
      <ellipse rx="38.5" ry="40.5" clip-path="url(#clipPath2)" cx="496" cy="338.3125" stroke="none"/>
    </g>
    <g text-rendering="geometricPrecision" stroke-miterlimit="1.45" shape-rendering="geometricPrecision" transform="matrix(1,0,0,1,-111,-109)" stroke-linecap="butt">
      <ellipse rx="38.5" fill="none" ry="40.5" clip-path="url(#clipPath2)" cx="496" cy="338.3125"/>
      <text x="490.049" font-size="22px" y="346.8485" clip-path="url(#clipPath2)" font-family="'Noto Sans Display SemiBold'" stroke="none" font-weight="bold" xml:space="preserve">2</text>
    </g>
    <g fill="rgb(255,153,204)" text-rendering="geometricPrecision" shape-rendering="geometricPrecision" transform="matrix(1,0,0,1,-111,-109)" stroke="rgb(255,153,204)">
      <path d="M423.2005 124.8125 L587 124.8125 L568.8017 155.8125 L405 155.8125 Z" fill-rule="evenodd" clip-path="url(#clipPath2)" stroke="none"/>
    </g>
    <g text-rendering="geometricPrecision" stroke-miterlimit="1.45" shape-rendering="geometricPrecision" transform="matrix(1,0,0,1,-111,-109)" stroke-linecap="butt">
      <path fill="none" d="M423.2005 124.8125 L587 124.8125 L568.8017 155.8125 L405 155.8125 Z" fill-rule="evenodd" clip-path="url(#clipPath2)"/>
      <text x="426.7006" font-size="11px" y="144.5805" clip-path="url(#clipPath2)" font-family="'Noto Sans Mono'" stroke="none" xml:space="preserve">-mullePerformFinalize</text>
      <path fill="none" d="M275 242.3198 L275 289.7966" clip-path="url(#clipPath2)"/>
      <path d="M275 297.7966 L280 285.7966 L275 288.7966 L270 285.7966 Z" clip-path="url(#clipPath2)" stroke="none"/>
      <path fill="none" d="M385.5 242.3198 L385.5 289.7966" clip-path="url(#clipPath2)"/>
      <path d="M385.5 297.7966 L390.5 285.7966 L385.5 288.7966 L380.5 285.7966 Z" clip-path="url(#clipPath2)" stroke="none"/>
      <path fill="none" stroke-dasharray="0,4" d="M313.5 338.3125 L347 338.3125" stroke-dashoffset="2" clip-path="url(#clipPath2)" stroke-linecap="round"/>
      <path fill="none" d="M606.5 242.3198 L606.5 289.7966" clip-path="url(#clipPath2)"/>
      <path d="M606.5 297.7966 L611.5 285.7966 L606.5 288.7966 L601.5 285.7966 Z" clip-path="url(#clipPath2)" stroke="none"/>
      <path fill="none" d="M718.5 242.3198 L718.5 289.7966" clip-path="url(#clipPath2)"/>
      <path d="M718.5 297.7966 L723.5 285.7966 L718.5 288.7966 L713.5 285.7966 Z" clip-path="url(#clipPath2)" stroke="none"/>
      <path fill="none" stroke-dasharray="0,4" d="M645 338.3125 L680 338.3125" stroke-dashoffset="2" clip-path="url(#clipPath2)" stroke-linecap="round"/>
      <path fill="none" d="M794.4857 242.3016 L817.2714 294.2169" clip-path="url(#clipPath2)"/>
      <path d="M820.4866 301.5424 L820.2422 288.5447 L816.8695 293.3013 L811.0854 292.5637 Z" clip-path="url(#clipPath2)" stroke="none"/>
      <path fill="none" stroke-dasharray="0,4" d="M757 338.3125 L798.125 338.3125" stroke-dashoffset="2" clip-path="url(#clipPath2)" stroke-linecap="round"/>
      <path fill="none" stroke-dasharray="0,4" d="M203 338.3125 L236.5 338.3125" stroke-dashoffset="2" clip-path="url(#clipPath2)" stroke-linecap="round"/>
      <path fill="none" d="M496 242.3016 L496 289.8125" clip-path="url(#clipPath2)"/>
      <path d="M496 297.8125 L501 285.8125 L496 288.8125 L491 285.8125 Z" clip-path="url(#clipPath2)" stroke="none"/>
      <path fill="none" stroke-dasharray="0,4" d="M424 338.3125 L457.5 338.3125" stroke-dashoffset="2" clip-path="url(#clipPath2)" stroke-linecap="round"/>
      <path fill="none" stroke-dasharray="0,4" d="M534.5 338.3125 L568 338.3125" stroke-dashoffset="2" clip-path="url(#clipPath2)" stroke-linecap="round"/>
      <path fill="none" d="M496 155.8132 L496 203.3161" clip-path="url(#clipPath2)"/>
      <path d="M496 211.3161 L501 199.3161 L496 202.3161 L491 199.3161 Z" clip-path="url(#clipPath2)" stroke="none"/>
    </g>
  </g>
</svg>
