<?xml version="1.0" encoding="UTF-8"?><svg xmlns="http://www.w3.org/2000/svg" xmlns:xlink="http://www.w3.org/1999/xlink" fill-opacity="1" color-rendering="auto" color-interpolation="auto" text-rendering="auto" stroke="black" stroke-linecap="square" width="599" stroke-miterlimit="10" shape-rendering="auto" stroke-opacity="1" fill="black" stroke-dasharray="none" font-weight="normal" stroke-width="1" height="405" font-family="'Dialog'" font-style="normal" stroke-linejoin="miter" font-size="12px" stroke-dashoffset="0" image-rendering="auto">
  <!--Generated by ySVG 2.5-->
  <defs id="genericDefs"/>
  <g>
    <defs id="defs1">
      <clipPath clipPathUnits="userSpaceOnUse" id="clipPath1">
        <path d="M0 0 L599 0 L599 405 L0 405 L0 0 Z"/>
      </clipPath>
      <clipPath clipPathUnits="userSpaceOnUse" id="clipPath2">
        <path d="M-56 108 L543 108 L543 513 L-56 513 L-56 108 Z"/>
      </clipPath>
    </defs>
    <g fill="white" text-rendering="geometricPrecision" shape-rendering="geometricPrecision" transform="translate(56,-108)" stroke="white">
      <rect x="-56" width="599" height="405" y="108" clip-path="url(#clipPath2)" stroke="none"/>
    </g>
    <g fill="white" text-rendering="geometricPrecision" shape-rendering="geometricPrecision" transform="matrix(1,0,0,1,56,-108)" stroke="white">
      <rect x="290" width="238" height="180" y="243" clip-path="url(#clipPath2)" stroke="none"/>
    </g>
    <g text-rendering="geometricPrecision" stroke-miterlimit="1.45" shape-rendering="geometricPrecision" transform="matrix(1,0,0,1,56,-108)" stroke-linecap="butt">
      <rect fill="none" x="290" width="238" height="180" y="243" clip-path="url(#clipPath2)"/>
      <text x="390.9998" xml:space="preserve" y="337.656" clip-path="url(#clipPath2)" font-family="'Noto Sans Mono'" stroke="none">ivars</text>
    </g>
    <g fill="red" text-rendering="geometricPrecision" shape-rendering="geometricPrecision" transform="matrix(1,0,0,1,56,-108)" stroke="red">
      <rect x="290" width="238" height="30" y="213" clip-path="url(#clipPath2)" stroke="none"/>
    </g>
    <g text-rendering="geometricPrecision" stroke-miterlimit="1.45" shape-rendering="geometricPrecision" transform="matrix(1,0,0,1,56,-108)" stroke-linecap="butt">
      <rect fill="none" x="290" width="238" height="30" y="213" clip-path="url(#clipPath2)"/>
      <text x="398.1999" xml:space="preserve" y="232.656" clip-path="url(#clipPath2)" font-family="'Noto Sans Mono'" stroke="none">isa</text>
    </g>
    <g fill="red" text-rendering="geometricPrecision" shape-rendering="geometricPrecision" transform="matrix(1,0,0,1,56,-108)" stroke="red">
      <rect x="290" width="238" height="30" y="183" clip-path="url(#clipPath2)" stroke="none"/>
    </g>
    <g text-rendering="geometricPrecision" stroke-miterlimit="1.45" shape-rendering="geometricPrecision" transform="matrix(1,0,0,1,56,-108)" stroke-linecap="butt">
      <rect fill="none" x="290" width="238" height="30" y="183" clip-path="url(#clipPath2)"/>
      <text x="369.3997" xml:space="preserve" y="202.656" clip-path="url(#clipPath2)" font-family="'Noto Sans Mono'" stroke="none">retainCount</text>
    </g>
    <g fill="rgb(255,153,0)" text-rendering="geometricPrecision" shape-rendering="geometricPrecision" transform="matrix(1,0,0,1,56,-108)" stroke="rgb(255,153,0)">
      <rect x="290" width="238" height="60" y="123" clip-path="url(#clipPath2)" stroke="none"/>
    </g>
    <g text-rendering="geometricPrecision" stroke-miterlimit="1.45" shape-rendering="geometricPrecision" transform="matrix(1,0,0,1,56,-108)" stroke-linecap="butt">
      <rect fill="none" x="290" width="238" height="60" y="123" clip-path="url(#clipPath2)"/>
      <text x="358.5996" xml:space="preserve" y="157.656" clip-path="url(#clipPath2)" font-family="'Noto Sans Mono'" stroke="none">metaExtraBytes</text>
    </g>
    <g fill="silver" text-rendering="geometricPrecision" shape-rendering="geometricPrecision" transform="matrix(1,0,0,1,56,-108)" stroke="silver">
      <rect x="290" width="238" height="74.5312" y="423" clip-path="url(#clipPath2)" stroke="none"/>
    </g>
    <g text-rendering="geometricPrecision" stroke-miterlimit="1.45" shape-rendering="geometricPrecision" transform="matrix(1,0,0,1,56,-108)" stroke-linecap="butt">
      <rect fill="none" x="290" width="238" height="74.5312" y="423" clip-path="url(#clipPath2)"/>
      <text x="372.9997" xml:space="preserve" y="464.9217" clip-path="url(#clipPath2)" font-family="'Noto Sans Mono'" stroke="none">extraBytes</text>
    </g>
    <g fill="silver" text-rendering="geometricPrecision" shape-rendering="geometricPrecision" transform="matrix(1,0,0,1,56,-108)" stroke="silver">
      <rect x="239.2188" width="50.7812" height="254.5312" y="243" clip-path="url(#clipPath2)" stroke="none"/>
    </g>
    <g text-rendering="geometricPrecision" stroke-miterlimit="1.45" shape-rendering="geometricPrecision" transform="matrix(1,0,0,1,56,-108)" stroke-linecap="butt">
      <rect fill="none" x="239.2188" width="50.7812" height="254.5312" y="243" clip-path="url(#clipPath2)"/>
      <text x="250.2093" xml:space="preserve" y="374.9217" clip-path="url(#clipPath2)" font-family="'Noto Sans Mono'" stroke="none">self</text>
    </g>
    <g fill="rgb(255,204,0)" text-rendering="geometricPrecision" shape-rendering="geometricPrecision" transform="matrix(1,0,0,1,56,-108)" stroke="rgb(255,204,0)">
      <rect x="239.2188" width="50.7812" height="120" y="123" clip-path="url(#clipPath2)" stroke="none"/>
    </g>
    <g text-rendering="geometricPrecision" stroke-miterlimit="1.45" shape-rendering="geometricPrecision" transform="matrix(1,0,0,1,56,-108)" stroke-linecap="butt">
      <rect fill="none" x="239.2188" width="50.7812" height="120" y="123" clip-path="url(#clipPath2)"/>
      <text x="250.2093" xml:space="preserve" y="187.656" clip-path="url(#clipPath2)" font-family="'Noto Sans Mono'" stroke="none">meta</text>
      <text x="-37.0811" xml:space="preserve" y="249.4746" clip-path="url(#clipPath2)" font-family="'Liberation Mono'" stroke="none">p = [NSObject alloc];</text>
      <path fill="none" d="M117.9844 246.2812 L222 246.2812" clip-path="url(#clipPath2)"/>
      <path d="M230 246.2812 L218 241.2812 L221 246.2812 L218 251.2812 Z" clip-path="url(#clipPath2)" stroke="none"/>
    </g>
  </g>
</svg>
