<svg xmlns="http://www.w3.org/2000/svg" xmlns:xlink="http://www.w3.org/1999/xlink" width="610pt" height="301pt" viewBox="0 0 609.5 300.89"><g id="graph0" class="graph" transform="scale(1 1) rotate(0) translate(4 296.8883)"><title>mulle_classhierarchy</title><polygon fill="#fff" stroke="transparent" points="-4 4 -4 -296.888 605.5 -296.888 605.5 4 -4 4"/><g id="node1" class="node"><title>0xa98050</title><polygon fill="#daa520" stroke="transparent" points="19 -237 19 -258 35 -258 35 -237 19 -237"/><polygon fill="none" stroke="#000" points="19 -237 19 -258 35 -258 35 -237 19 -237"/><text x="22" y="-243.8" fill="#fff" font-family="Times,serif" font-size="14" text-anchor="start">A</text><polygon fill="none" stroke="#000" points="16 -234.5 16 -261.5 38 -261.5 38 -234.5 16 -234.5"/></g><g id="node2" class="node"><title>0xa98590</title><polygon fill="#daa520" stroke="transparent" points="216 -237 216 -258 230 -258 230 -237 216 -237"/><polygon fill="none" stroke="#000" points="216 -237 216 -258 230 -258 230 -237 216 -237"/><text x="219" y="-243.8" fill="#fff" font-family="Times,serif" font-size="14" text-anchor="start">P</text><polygon fill="none" stroke="#000" points="213 -234.5 213 -261.5 233 -261.5 233 -234.5 213 -234.5"/></g><g id="node4" class="node"><title>0xa99150</title><polygon fill="#daa520" stroke="transparent" points="336 -139 336 -160 352 -160 352 -139 336 -139"/><polygon fill="none" stroke="#000" points="336 -139 336 -160 352 -160 352 -139 336 -139"/><text x="339" y="-145.8" fill="#fff" font-family="Times,serif" font-size="14" text-anchor="start">B</text><polygon fill="none" stroke="#000" points="333 -136.5 333 -163.5 355 -163.5 355 -136.5 333 -136.5"/></g><g id="edge3" class="edge"><title>0xa98050-&gt;0xa99150</title><path fill="none" stroke="#000" d="M63.1635,-227.1954C69.0258,-224.2277 75.1076,-221.38 81,-219 163.9431,-185.4984 268.2016,-163.7865 316.7703,-154.7672"/><polygon fill="#000" stroke="#000" points="61.417 -224.159 54.191 -231.908 64.672 -230.357 61.417 -224.159"/><text x="211" y="-189.8" fill="#000" font-family="Times,serif" font-size="14" text-anchor="middle">superclass</text></g><g id="node5" class="node"><title>0x408130</title><polygon fill="#000" stroke="transparent" points="101 -249 101 -270 167 -270 167 -249 101 -249"/><polygon fill="none" stroke="#000" points="101 -249 101 -270 167 -270 167 -249 101 -249"/><text x="105" y="-255.8" fill="#fff" font-family="Times,serif" font-size="14" text-anchor="start">methodlist</text><polygon fill="#7fff00" stroke="transparent" points="101 -226 101 -247 167 -247 167 -226 101 -226"/><polygon fill="none" stroke="#000" points="101 -226 101 -247 167 -247 167 -226 101 -226"/><text x="124.5" y="-232.8" fill="#000" font-family="Times,serif" font-size="14" text-anchor="start">foo</text><polygon fill="none" stroke="#000" points="98 -223 98 -273 170 -273 170 -223 98 -223"/></g><g id="edge6" class="edge"><title>0xa98050-&gt;0x408130</title><path fill="none" stroke="#000" d="M54.168,-248C62.5926,-248 71.0173,-248 79.4419,-248"/><polygon fill="#000" stroke="#000" points="89.718 -244 89.718 -252 81.718 -252 81.718 -244 89.718 -244"/><polyline fill="none" stroke="#000" points="81.718 -248 79.718 -248"/></g><g id="node3" class="node"><title>0xa98af0</title><polygon fill="#daa520" stroke="transparent" points="411 -237 411 -258 427 -258 427 -237 411 -237"/><polygon fill="none" stroke="#000" points="411 -237 411 -258 427 -258 427 -237 411 -237"/><text x="414" y="-243.8" fill="#fff" font-family="Times,serif" font-size="14" text-anchor="start">Q</text><polygon fill="none" stroke="#000" points="408 -234.5 408 -261.5 430 -261.5 430 -234.5 408 -234.5"/></g><g id="edge4" class="edge"><title>0xa98590-&gt;0xa99150</title><path fill="none" stroke="#000" d="M241.9374,-221.5789C251.2874,-209.7407 263.2806,-196.1851 276,-186 288.3038,-176.1477 303.7125,-167.7293 316.7497,-161.5162"/><polygon fill="#000" stroke="#000" points="238.925 -219.755 235.624 -229.823 244.483 -224.012 238.925 -219.755"/><text x="322.5" y="-189.8" fill="#000" font-family="Times,serif" font-size="14" text-anchor="middle">protocolclass #0</text></g><g id="node6" class="node"><title>0x4081e0</title><polygon fill="#000" stroke="transparent" points="297 -249 297 -270 363 -270 363 -249 297 -249"/><polygon fill="none" stroke="#000" points="297 -249 297 -270 363 -270 363 -249 297 -249"/><text x="301" y="-255.8" fill="#fff" font-family="Times,serif" font-size="14" text-anchor="start">methodlist</text><polygon fill="#7fff00" stroke="transparent" points="297 -226 297 -247 363 -247 363 -226 297 -226"/><polygon fill="none" stroke="#000" points="297 -226 297 -247 363 -247 363 -226 297 -226"/><text x="320.5" y="-232.8" fill="#000" font-family="Times,serif" font-size="14" text-anchor="start">foo</text><polygon fill="none" stroke="#000" points="294 -223 294 -273 366 -273 366 -223 294 -223"/></g><g id="edge7" class="edge"><title>0xa98590-&gt;0x4081e0</title><path fill="none" stroke="#000" d="M250.168,-248C258.5926,-248 267.0173,-248 275.4419,-248"/><polygon fill="#000" stroke="#000" points="285.718 -244 285.718 -252 277.718 -252 277.718 -244 285.718 -244"/><polyline fill="none" stroke="#000" points="277.718 -248 275.718 -248"/></g><g id="edge5" class="edge"><title>0xa98af0-&gt;0xa99150</title><path fill="none" stroke="#000" d="M398.4838,-221.1921C385.5466,-204.2876 369.1903,-182.9153 357.7903,-168.0193"/><polygon fill="#000" stroke="#000" points="396.036 -223.753 404.893 -229.567 401.595 -219.499 396.036 -223.753"/><text x="428.5" y="-189.8" fill="#000" font-family="Times,serif" font-size="14" text-anchor="middle">protocolclass #1</text></g><g id="node7" class="node"><title>0x408268</title><polygon fill="#000" stroke="transparent" points="493 -249 493 -270 559 -270 559 -249 493 -249"/><polygon fill="none" stroke="#000" points="493 -249 493 -270 559 -270 559 -249 493 -249"/><text x="497" y="-255.8" fill="#fff" font-family="Times,serif" font-size="14" text-anchor="start">methodlist</text><polygon fill="#7fff00" stroke="transparent" points="493 -226 493 -247 559 -247 559 -226 493 -226"/><polygon fill="none" stroke="#000" points="493 -226 493 -247 559 -247 559 -226 493 -226"/><text x="516.5" y="-232.8" fill="#000" font-family="Times,serif" font-size="14" text-anchor="start">foo</text><polygon fill="none" stroke="#000" points="490 -223 490 -273 562 -273 562 -223 490 -223"/></g><g id="edge8" class="edge"><title>0xa98af0-&gt;0x408268</title><path fill="none" stroke="#000" d="M446.168,-248C454.5926,-248 463.0173,-248 471.4419,-248"/><polygon fill="#000" stroke="#000" points="481.718 -244 481.718 -252 473.718 -252 473.718 -244 481.718 -244"/><polyline fill="none" stroke="#000" points="473.718 -248 471.718 -248"/></g><g id="node8" class="node"><title>0x4082f0</title><polygon fill="#000" stroke="transparent" points="267 -41.5 267 -62.5 333 -62.5 333 -41.5 267 -41.5"/><polygon fill="none" stroke="#000" points="267 -41.5 267 -62.5 333 -62.5 333 -41.5 267 -41.5"/><text x="271" y="-48.3" fill="#fff" font-family="Times,serif" font-size="14" text-anchor="start">methodlist</text><polygon fill="#7fff00" stroke="transparent" points="267 -18.5 267 -39.5 333 -39.5 333 -18.5 267 -18.5"/><polygon fill="none" stroke="#000" points="267 -18.5 267 -39.5 333 -39.5 333 -18.5 267 -18.5"/><text x="290.5" y="-25.3" fill="#000" font-family="Times,serif" font-size="14" text-anchor="start">foo</text><polygon fill="none" stroke="#000" points="264 -15.5 264 -65.5 336 -65.5 336 -15.5 264 -15.5"/></g><g id="edge11" class="edge"><title>0xa99150-&gt;0x4082f0</title><path fill="none" stroke="#000" d="M330.9889,-131.8963C327.3995,-126.3417 323.7426,-120.0855 321,-114 316.1079,-103.1448 312.0655,-90.8707 308.878,-79.5055"/><polygon fill="#000" stroke="#000" points="302.432 -70.839 310.163 -68.781 312.221 -76.512 304.49 -78.57 302.432 -70.839"/><polyline fill="none" stroke="#000" points="308.355 -77.541 308.87 -79.474"/><text x="359" y="-102.8" fill="#000" font-family="Times,serif" font-size="14" text-anchor="middle">methodlist #0</text></g><g id="node9" class="node"><title>0x408608</title><polygon fill="#000" stroke="transparent" points="391 -52.5 391 -73.5 462 -73.5 462 -52.5 391 -52.5"/><polygon fill="none" stroke="#000" points="391 -52.5 391 -73.5 462 -73.5 462 -52.5 391 -52.5"/><text x="397.5" y="-59.3" fill="#fff" font-family="Times,serif" font-size="14" text-anchor="start">methodlist</text><polygon fill="none" stroke="#000" points="391 -29.5 391 -50.5 444 -50.5 444 -29.5 391 -29.5"/><text x="394" y="-36.3" fill="#000" font-family="Times,serif" font-size="14" text-anchor="start">category</text><polygon fill="#daa520" stroke="transparent" points="446 -29.5 446 -50.5 462 -50.5 462 -29.5 446 -29.5"/><polygon fill="none" stroke="#000" points="446 -29.5 446 -50.5 462 -50.5 462 -29.5 446 -29.5"/><text x="449" y="-36.3" fill="#fff" font-family="Times,serif" font-size="14" text-anchor="start">X</text><polygon fill="#7fff00" stroke="transparent" points="391 -6.5 391 -27.5 462 -27.5 462 -6.5 391 -6.5"/><polygon fill="none" stroke="#000" points="391 -6.5 391 -27.5 462 -27.5 462 -6.5 391 -6.5"/><text x="417" y="-13.3" fill="#000" font-family="Times,serif" font-size="14" text-anchor="start">foo</text><polygon fill="none" stroke="#000" points="387.5 -4 387.5 -77 464.5 -77 464.5 -4 387.5 -4"/></g><g id="edge12" class="edge"><title>0xa99150-&gt;0x408608</title><path fill="none" stroke="#000" d="M371.0398,-136.0354C380.2493,-130.2248 389.9798,-122.7711 397,-114 402.5429,-107.0746 407.1359,-98.9583 410.9053,-90.6945"/><polygon fill="#000" stroke="#000" points="411.128 -79.811 418.507 -82.903 415.415 -90.282 408.037 -87.19 411.128 -79.811"/><polyline fill="none" stroke="#000" points="411.726 -88.736 410.953 -90.581"/><text x="445" y="-102.8" fill="#000" font-family="Times,serif" font-size="14" text-anchor="middle">methodlist #1</text></g><g id="node10" class="node"><title>0x408708</title><polygon fill="#000" stroke="transparent" points="520 -52.5 520 -73.5 591 -73.5 591 -52.5 520 -52.5"/><polygon fill="none" stroke="#000" points="520 -52.5 520 -73.5 591 -73.5 591 -52.5 520 -52.5"/><text x="526.5" y="-59.3" fill="#fff" font-family="Times,serif" font-size="14" text-anchor="start">methodlist</text><polygon fill="none" stroke="#000" points="520 -29.5 520 -50.5 573 -50.5 573 -29.5 520 -29.5"/><text x="523" y="-36.3" fill="#000" font-family="Times,serif" font-size="14" text-anchor="start">category</text><polygon fill="#daa520" stroke="transparent" points="575 -29.5 575 -50.5 591 -50.5 591 -29.5 575 -29.5"/><polygon fill="none" stroke="#000" points="575 -29.5 575 -50.5 591 -50.5 591 -29.5 575 -29.5"/><text x="578" y="-36.3" fill="#fff" font-family="Times,serif" font-size="14" text-anchor="start">Y</text><polygon fill="#7fff00" stroke="transparent" points="520 -6.5 520 -27.5 591 -27.5 591 -6.5 520 -6.5"/><polygon fill="none" stroke="#000" points="520 -6.5 520 -27.5 591 -27.5 591 -6.5 520 -6.5"/><text x="546" y="-13.3" fill="#000" font-family="Times,serif" font-size="14" text-anchor="start">foo</text><polygon fill="none" stroke="#000" points="516.5 -4 516.5 -77 593.5 -77 593.5 -4 516.5 -4"/></g><g id="edge13" class="edge"><title>0xa99150-&gt;0x408708</title><path fill="none" stroke="#000" d="M371.0432,-147.8199C401.1734,-144.3828 450.45,-135.683 487,-114 498.3183,-107.2855 508.8891,-98.1147 518.1647,-88.5276"/><polygon fill="#000" stroke="#000" points="522.061 -78.431 527.931 -83.867 522.496 -89.737 516.626 -84.302 522.061 -78.431"/><polyline fill="none" stroke="#000" points="519.561 -87.019 518.202 -88.487"/><text x="544" y="-102.8" fill="#000" font-family="Times,serif" font-size="14" text-anchor="middle">methodlist #2</text></g><g id="edge14" class="edge"><title>0x408130:A.foo-&gt;0x4081e0:P.foo</title><path fill="none" stroke="#000" stroke-width="2" d="M176.6178,-239.2019C186.9734,-248.9119 176.3453,-277.8587 196,-286 218.1731,-295.1844 227.8269,-295.1844 250,-286 278.1772,-274.3286 266.5013,-236 297,-236"/><polygon fill="#000" stroke="#000" stroke-width="2" points="177.594 -235.838 167 -236 175.382 -242.48 177.594 -235.838"/></g><g id="edge15" class="edge"><title>0x4081e0:P.foo-&gt;0x408268:Q.foo</title><path fill="none" stroke="#000" stroke-width="2" d="M372.6178,-239.2019C382.9734,-248.9119 372.3453,-277.8587 392,-286 414.1731,-295.1844 423.8269,-295.1844 446,-286 474.1772,-274.3286 462.5013,-236 493,-236"/><polygon fill="#000" stroke="#000" stroke-width="2" points="373.594 -235.838 363 -236 371.382 -242.48 373.594 -235.838"/></g><g id="edge16" class="edge"><title>0x408268:Q.foo-&gt;0x4082f0:B.foo</title><path fill="none" stroke="#000" stroke-width="2" d="M526.0469,-215.9192C526.4891,-163.4868 529.0311,-135.376 487,-99 447.5501,-64.8579 415.5027,-108.2302 371,-81 346.4303,-65.9664 361.8041,-28.5 333,-28.5"/><polygon fill="#000" stroke="#000" stroke-width="2" points="522.547 -215.984 526 -226 529.547 -216.016 522.547 -215.984"/></g><g id="edge17" class="edge"><title>0x408608:X.foo-&gt;0x4082f0:B.foo</title><path fill="none" stroke="#000" stroke-width="2" d="M391,-16.5C368.5837,-16.5 361.3748,-25.2019 343.4732,-27.7853"/><polygon fill="#000" stroke="#000" stroke-width="2" points="342.738 -24.327 333 -28.5 343.215 -31.311 342.738 -24.327"/></g><g id="edge18" class="edge"><title>0x408708:Y.foo-&gt;0x408608:X.foo</title><path fill="none" stroke="#000" stroke-width="2" d="M520,-16.5C498.0486,-16.5 490.117,-16.5 472.3277,-16.5"/><polygon fill="#000" stroke="#000" stroke-width="2" points="472 -13 462 -16.5 472 -20 472 -13"/></g></g></svg>