<?xml version="1.0" encoding="UTF-8" standalone="no"?>
<!DOCTYPE svg PUBLIC "-//W3C//DTD SVG 1.1//EN"
 "http://www.w3.org/Graphics/SVG/1.1/DTD/svg11.dtd">
<!-- Generated by graphviz version 2.40.1 (20161225.0304)
 -->
<!-- Title: mulle_classhierarchy Pages: 1 -->
<svg width="610pt" height="301pt"
 viewBox="0.00 0.00 609.50 300.89" xmlns="http://www.w3.org/2000/svg" xmlns:xlink="http://www.w3.org/1999/xlink">
<g id="graph0" class="graph" transform="scale(1 1) rotate(0) translate(4 296.8883)">
<title>mulle_classhierarchy</title>
<polygon fill="#ffffff" stroke="transparent" points="-4,4 -4,-296.8883 605.5,-296.8883 605.5,4 -4,4"/>
<!-- 0xa98050 -->
<g id="node1" class="node">
<title>0xa98050</title>
<polygon fill="#daa520" stroke="transparent" points="19,-237 19,-258 35,-258 35,-237 19,-237"/>
<polygon fill="none" stroke="#000000" points="19,-237 19,-258 35,-258 35,-237 19,-237"/>
<text text-anchor="start" x="22" y="-243.8" font-family="Times,serif" font-size="14.00" fill="#ffffff">A</text>
<polygon fill="none" stroke="#000000" points="16,-234.5 16,-261.5 38,-261.5 38,-234.5 16,-234.5"/>
</g>
<!-- 0xa98590 -->
<g id="node2" class="node">
<title>0xa98590</title>
<polygon fill="#daa520" stroke="transparent" points="216,-237 216,-258 230,-258 230,-237 216,-237"/>
<polygon fill="none" stroke="#000000" points="216,-237 216,-258 230,-258 230,-237 216,-237"/>
<text text-anchor="start" x="219" y="-243.8" font-family="Times,serif" font-size="14.00" fill="#ffffff">P</text>
<polygon fill="none" stroke="#000000" points="213,-234.5 213,-261.5 233,-261.5 233,-234.5 213,-234.5"/>
</g>
<!-- 0xa98050&#45;&gt;0xa98590 -->
<!-- 0xa99150 -->
<g id="node4" class="node">
<title>0xa99150</title>
<polygon fill="#daa520" stroke="transparent" points="336,-139 336,-160 352,-160 352,-139 336,-139"/>
<polygon fill="none" stroke="#000000" points="336,-139 336,-160 352,-160 352,-139 336,-139"/>
<text text-anchor="start" x="339" y="-145.8" font-family="Times,serif" font-size="14.00" fill="#ffffff">B</text>
<polygon fill="none" stroke="#000000" points="333,-136.5 333,-163.5 355,-163.5 355,-136.5 333,-136.5"/>
</g>
<!-- 0xa98050&#45;&gt;0xa99150 -->
<g id="edge3" class="edge">
<title>0xa98050&#45;&gt;0xa99150</title>
<path fill="none" stroke="#000000" d="M63.1635,-227.1954C69.0258,-224.2277 75.1076,-221.38 81,-219 163.9431,-185.4984 268.2016,-163.7865 316.7703,-154.7672"/>
<polygon fill="#000000" stroke="#000000" points="61.4168,-224.1594 54.1909,-231.9078 64.6716,-230.3567 61.4168,-224.1594"/>
<text text-anchor="middle" x="211" y="-189.8" font-family="Times,serif" font-size="14.00" fill="#000000"> superclass</text>
</g>
<!-- 0x408130 -->
<g id="node5" class="node">
<title>0x408130</title>
<polygon fill="#000000" stroke="transparent" points="101,-249 101,-270 167,-270 167,-249 101,-249"/>
<polygon fill="none" stroke="#000000" points="101,-249 101,-270 167,-270 167,-249 101,-249"/>
<text text-anchor="start" x="105" y="-255.8" font-family="Times,serif" font-size="14.00" fill="#ffffff">methodlist</text>
<polygon fill="#7fff00" stroke="transparent" points="101,-226 101,-247 167,-247 167,-226 101,-226"/>
<polygon fill="none" stroke="#000000" points="101,-226 101,-247 167,-247 167,-226 101,-226"/>
<text text-anchor="start" x="124.5" y="-232.8" font-family="Times,serif" font-size="14.00" fill="#000000">foo</text>
<polygon fill="none" stroke="#000000" points="98,-223 98,-273 170,-273 170,-223 98,-223"/>
</g>
<!-- 0xa98050&#45;&gt;0x408130 -->
<g id="edge6" class="edge">
<title>0xa98050&#45;&gt;0x408130</title>
<path fill="none" stroke="#000000" d="M54.168,-248C62.5926,-248 71.0173,-248 79.4419,-248"/>
<polygon fill="#000000" stroke="#000000" points="89.7181,-244 89.7182,-252 81.7182,-252.0001 81.7181,-244.0001 89.7181,-244"/>
<polyline fill="none" stroke="#000000" points="81.7182,-248.0001 79.7182,-248.0001 "/>
</g>
<!-- 0xa98af0 -->
<g id="node3" class="node">
<title>0xa98af0</title>
<polygon fill="#daa520" stroke="transparent" points="411,-237 411,-258 427,-258 427,-237 411,-237"/>
<polygon fill="none" stroke="#000000" points="411,-237 411,-258 427,-258 427,-237 411,-237"/>
<text text-anchor="start" x="414" y="-243.8" font-family="Times,serif" font-size="14.00" fill="#ffffff">Q</text>
<polygon fill="none" stroke="#000000" points="408,-234.5 408,-261.5 430,-261.5 430,-234.5 408,-234.5"/>
</g>
<!-- 0xa98590&#45;&gt;0xa98af0 -->
<!-- 0xa98590&#45;&gt;0xa99150 -->
<g id="edge4" class="edge">
<title>0xa98590&#45;&gt;0xa99150</title>
<path fill="none" stroke="#000000" d="M241.9374,-221.5789C251.2874,-209.7407 263.2806,-196.1851 276,-186 288.3038,-176.1477 303.7125,-167.7293 316.7497,-161.5162"/>
<polygon fill="#000000" stroke="#000000" points="238.9255,-219.7554 235.6238,-229.8227 244.4829,-224.0116 238.9255,-219.7554"/>
<text text-anchor="middle" x="322.5" y="-189.8" font-family="Times,serif" font-size="14.00" fill="#000000"> protocolclass #0</text>
</g>
<!-- 0x4081e0 -->
<g id="node6" class="node">
<title>0x4081e0</title>
<polygon fill="#000000" stroke="transparent" points="297,-249 297,-270 363,-270 363,-249 297,-249"/>
<polygon fill="none" stroke="#000000" points="297,-249 297,-270 363,-270 363,-249 297,-249"/>
<text text-anchor="start" x="301" y="-255.8" font-family="Times,serif" font-size="14.00" fill="#ffffff">methodlist</text>
<polygon fill="#7fff00" stroke="transparent" points="297,-226 297,-247 363,-247 363,-226 297,-226"/>
<polygon fill="none" stroke="#000000" points="297,-226 297,-247 363,-247 363,-226 297,-226"/>
<text text-anchor="start" x="320.5" y="-232.8" font-family="Times,serif" font-size="14.00" fill="#000000">foo</text>
<polygon fill="none" stroke="#000000" points="294,-223 294,-273 366,-273 366,-223 294,-223"/>
</g>
<!-- 0xa98590&#45;&gt;0x4081e0 -->
<g id="edge7" class="edge">
<title>0xa98590&#45;&gt;0x4081e0</title>
<path fill="none" stroke="#000000" d="M250.168,-248C258.5926,-248 267.0173,-248 275.4419,-248"/>
<polygon fill="#000000" stroke="#000000" points="285.7181,-244 285.7182,-252 277.7182,-252.0001 277.7181,-244.0001 285.7181,-244"/>
<polyline fill="none" stroke="#000000" points="277.7182,-248.0001 275.7182,-248.0001 "/>
</g>
<!-- 0xa98af0&#45;&gt;0xa99150 -->
<g id="edge5" class="edge">
<title>0xa98af0&#45;&gt;0xa99150</title>
<path fill="none" stroke="#000000" d="M398.4838,-221.1921C385.5466,-204.2876 369.1903,-182.9153 357.7903,-168.0193"/>
<polygon fill="#000000" stroke="#000000" points="396.0361,-223.7528 404.8931,-229.5669 401.595,-219.4985 396.0361,-223.7528"/>
<text text-anchor="middle" x="428.5" y="-189.8" font-family="Times,serif" font-size="14.00" fill="#000000"> protocolclass #1</text>
</g>
<!-- 0x408268 -->
<g id="node7" class="node">
<title>0x408268</title>
<polygon fill="#000000" stroke="transparent" points="493,-249 493,-270 559,-270 559,-249 493,-249"/>
<polygon fill="none" stroke="#000000" points="493,-249 493,-270 559,-270 559,-249 493,-249"/>
<text text-anchor="start" x="497" y="-255.8" font-family="Times,serif" font-size="14.00" fill="#ffffff">methodlist</text>
<polygon fill="#7fff00" stroke="transparent" points="493,-226 493,-247 559,-247 559,-226 493,-226"/>
<polygon fill="none" stroke="#000000" points="493,-226 493,-247 559,-247 559,-226 493,-226"/>
<text text-anchor="start" x="516.5" y="-232.8" font-family="Times,serif" font-size="14.00" fill="#000000">foo</text>
<polygon fill="none" stroke="#000000" points="490,-223 490,-273 562,-273 562,-223 490,-223"/>
</g>
<!-- 0xa98af0&#45;&gt;0x408268 -->
<g id="edge8" class="edge">
<title>0xa98af0&#45;&gt;0x408268</title>
<path fill="none" stroke="#000000" d="M446.168,-248C454.5926,-248 463.0173,-248 471.4419,-248"/>
<polygon fill="#000000" stroke="#000000" points="481.7181,-244 481.7182,-252 473.7182,-252.0001 473.7181,-244.0001 481.7181,-244"/>
<polyline fill="none" stroke="#000000" points="473.7182,-248.0001 471.7182,-248.0001 "/>
</g>
<!-- 0x4082f0 -->
<g id="node8" class="node">
<title>0x4082f0</title>
<polygon fill="#000000" stroke="transparent" points="267,-41.5 267,-62.5 333,-62.5 333,-41.5 267,-41.5"/>
<polygon fill="none" stroke="#000000" points="267,-41.5 267,-62.5 333,-62.5 333,-41.5 267,-41.5"/>
<text text-anchor="start" x="271" y="-48.3" font-family="Times,serif" font-size="14.00" fill="#ffffff">methodlist</text>
<polygon fill="#7fff00" stroke="transparent" points="267,-18.5 267,-39.5 333,-39.5 333,-18.5 267,-18.5"/>
<polygon fill="none" stroke="#000000" points="267,-18.5 267,-39.5 333,-39.5 333,-18.5 267,-18.5"/>
<text text-anchor="start" x="290.5" y="-25.3" font-family="Times,serif" font-size="14.00" fill="#000000">foo</text>
<polygon fill="none" stroke="#000000" points="264,-15.5 264,-65.5 336,-65.5 336,-15.5 264,-15.5"/>
</g>
<!-- 0xa99150&#45;&gt;0x4082f0 -->
<g id="edge11" class="edge">
<title>0xa99150&#45;&gt;0x4082f0</title>
<path fill="none" stroke="#000000" d="M330.9889,-131.8963C327.3995,-126.3417 323.7426,-120.0855 321,-114 316.1079,-103.1448 312.0655,-90.8707 308.878,-79.5055"/>
<polygon fill="#000000" stroke="#000000" points="302.4318,-70.8394 310.1626,-68.7814 312.2206,-76.5122 304.4898,-78.5702 302.4318,-70.8394"/>
<polyline fill="none" stroke="#000000" points="308.3552,-77.5412 308.8697,-79.4739 "/>
<text text-anchor="middle" x="359" y="-102.8" font-family="Times,serif" font-size="14.00" fill="#000000">methodlist #0</text>
</g>
<!-- 0x408608 -->
<g id="node9" class="node">
<title>0x408608</title>
<polygon fill="#000000" stroke="transparent" points="391,-52.5 391,-73.5 462,-73.5 462,-52.5 391,-52.5"/>
<polygon fill="none" stroke="#000000" points="391,-52.5 391,-73.5 462,-73.5 462,-52.5 391,-52.5"/>
<text text-anchor="start" x="397.5" y="-59.3" font-family="Times,serif" font-size="14.00" fill="#ffffff">methodlist</text>
<polygon fill="none" stroke="#000000" points="391,-29.5 391,-50.5 444,-50.5 444,-29.5 391,-29.5"/>
<text text-anchor="start" x="394" y="-36.3" font-family="Times,serif" font-size="14.00" fill="#000000">category</text>
<polygon fill="#daa520" stroke="transparent" points="446,-29.5 446,-50.5 462,-50.5 462,-29.5 446,-29.5"/>
<polygon fill="none" stroke="#000000" points="446,-29.5 446,-50.5 462,-50.5 462,-29.5 446,-29.5"/>
<text text-anchor="start" x="449" y="-36.3" font-family="Times,serif" font-size="14.00" fill="#ffffff">X</text>
<polygon fill="#7fff00" stroke="transparent" points="391,-6.5 391,-27.5 462,-27.5 462,-6.5 391,-6.5"/>
<polygon fill="none" stroke="#000000" points="391,-6.5 391,-27.5 462,-27.5 462,-6.5 391,-6.5"/>
<text text-anchor="start" x="417" y="-13.3" font-family="Times,serif" font-size="14.00" fill="#000000">foo</text>
<polygon fill="none" stroke="#000000" points="387.5,-4 387.5,-77 464.5,-77 464.5,-4 387.5,-4"/>
</g>
<!-- 0xa99150&#45;&gt;0x408608 -->
<g id="edge12" class="edge">
<title>0xa99150&#45;&gt;0x408608</title>
<path fill="none" stroke="#000000" d="M371.0398,-136.0354C380.2493,-130.2248 389.9798,-122.7711 397,-114 402.5429,-107.0746 407.1359,-98.9583 410.9053,-90.6945"/>
<polygon fill="#000000" stroke="#000000" points="411.1285,-79.8115 418.5069,-82.9033 415.4151,-90.2817 408.0367,-87.19 411.1285,-79.8115"/>
<polyline fill="none" stroke="#000000" points="411.7259,-88.7359 410.953,-90.5805 "/>
<text text-anchor="middle" x="445" y="-102.8" font-family="Times,serif" font-size="14.00" fill="#000000">methodlist #1</text>
</g>
<!-- 0x408708 -->
<g id="node10" class="node">
<title>0x408708</title>
<polygon fill="#000000" stroke="transparent" points="520,-52.5 520,-73.5 591,-73.5 591,-52.5 520,-52.5"/>
<polygon fill="none" stroke="#000000" points="520,-52.5 520,-73.5 591,-73.5 591,-52.5 520,-52.5"/>
<text text-anchor="start" x="526.5" y="-59.3" font-family="Times,serif" font-size="14.00" fill="#ffffff">methodlist</text>
<polygon fill="none" stroke="#000000" points="520,-29.5 520,-50.5 573,-50.5 573,-29.5 520,-29.5"/>
<text text-anchor="start" x="523" y="-36.3" font-family="Times,serif" font-size="14.00" fill="#000000">category</text>
<polygon fill="#daa520" stroke="transparent" points="575,-29.5 575,-50.5 591,-50.5 591,-29.5 575,-29.5"/>
<polygon fill="none" stroke="#000000" points="575,-29.5 575,-50.5 591,-50.5 591,-29.5 575,-29.5"/>
<text text-anchor="start" x="578" y="-36.3" font-family="Times,serif" font-size="14.00" fill="#ffffff">Y</text>
<polygon fill="#7fff00" stroke="transparent" points="520,-6.5 520,-27.5 591,-27.5 591,-6.5 520,-6.5"/>
<polygon fill="none" stroke="#000000" points="520,-6.5 520,-27.5 591,-27.5 591,-6.5 520,-6.5"/>
<text text-anchor="start" x="546" y="-13.3" font-family="Times,serif" font-size="14.00" fill="#000000">foo</text>
<polygon fill="none" stroke="#000000" points="516.5,-4 516.5,-77 593.5,-77 593.5,-4 516.5,-4"/>
</g>
<!-- 0xa99150&#45;&gt;0x408708 -->
<g id="edge13" class="edge">
<title>0xa99150&#45;&gt;0x408708</title>
<path fill="none" stroke="#000000" d="M371.0432,-147.8199C401.1734,-144.3828 450.45,-135.683 487,-114 498.3183,-107.2855 508.8891,-98.1147 518.1647,-88.5276"/>
<polygon fill="#000000" stroke="#000000" points="522.061,-78.4314 527.9314,-83.8665 522.4963,-89.7368 516.626,-84.3018 522.061,-78.4314"/>
<polyline fill="none" stroke="#000000" points="519.5612,-87.0193 518.2024,-88.4869 "/>
<text text-anchor="middle" x="544" y="-102.8" font-family="Times,serif" font-size="14.00" fill="#000000">methodlist #2</text>
</g>
<!-- 0x408130&#45;&gt;0x4081e0 -->
<g id="edge14" class="edge">
<title>0x408130:A.foo&#45;&gt;0x4081e0:P.foo</title>
<path fill="none" stroke="#000000" stroke-width="2" d="M176.6178,-239.2019C186.9734,-248.9119 176.3453,-277.8587 196,-286 218.1731,-295.1844 227.8269,-295.1844 250,-286 278.1772,-274.3286 266.5013,-236 297,-236"/>
<polygon fill="#000000" stroke="#000000" stroke-width="2" points="177.5936,-235.838 167,-236 175.3825,-242.4796 177.5936,-235.838"/>
</g>
<!-- 0x4081e0&#45;&gt;0x408268 -->
<g id="edge15" class="edge">
<title>0x4081e0:P.foo&#45;&gt;0x408268:Q.foo</title>
<path fill="none" stroke="#000000" stroke-width="2" d="M372.6178,-239.2019C382.9734,-248.9119 372.3453,-277.8587 392,-286 414.1731,-295.1844 423.8269,-295.1844 446,-286 474.1772,-274.3286 462.5013,-236 493,-236"/>
<polygon fill="#000000" stroke="#000000" stroke-width="2" points="373.5936,-235.838 363,-236 371.3825,-242.4796 373.5936,-235.838"/>
</g>
<!-- 0x408268&#45;&gt;0x4082f0 -->
<g id="edge16" class="edge">
<title>0x408268:Q.foo&#45;&gt;0x4082f0:B.foo</title>
<path fill="none" stroke="#000000" stroke-width="2" d="M526.0469,-215.9192C526.4891,-163.4868 529.0311,-135.376 487,-99 447.5501,-64.8579 415.5027,-108.2302 371,-81 346.4303,-65.9664 361.8041,-28.5 333,-28.5"/>
<polygon fill="#000000" stroke="#000000" stroke-width="2" points="522.5467,-215.9838 526,-226 529.5466,-216.0164 522.5467,-215.9838"/>
</g>
<!-- 0x4082f0&#45;&gt;0x408608 -->
<!-- 0x408608&#45;&gt;0x4082f0 -->
<g id="edge17" class="edge">
<title>0x408608:X.foo&#45;&gt;0x4082f0:B.foo</title>
<path fill="none" stroke="#000000" stroke-width="2" d="M391,-16.5C368.5837,-16.5 361.3748,-25.2019 343.4732,-27.7853"/>
<polygon fill="#000000" stroke="#000000" stroke-width="2" points="342.7385,-24.3272 333,-28.5 343.2151,-31.311 342.7385,-24.3272"/>
</g>
<!-- 0x408608&#45;&gt;0x408708 -->
<!-- 0x408708&#45;&gt;0x408608 -->
<g id="edge18" class="edge">
<title>0x408708:Y.foo&#45;&gt;0x408608:X.foo</title>
<path fill="none" stroke="#000000" stroke-width="2" d="M520,-16.5C498.0486,-16.5 490.117,-16.5 472.3277,-16.5"/>
<polygon fill="#000000" stroke="#000000" stroke-width="2" points="472,-13.0001 462,-16.5 472,-20.0001 472,-13.0001"/>
</g>
</g>
</svg>
