<?xml version="1.0" encoding="UTF-8" standalone="no"?>
<!DOCTYPE svg PUBLIC "-//W3C//DTD SVG 1.1//EN"
 "http://www.w3.org/Graphics/SVG/1.1/DTD/svg11.dtd">
<!-- Generated by graphviz version 2.40.1 (20161225.0304)
 -->
<!-- Title: mulle_classhierarchy Pages: 1 -->
<svg width="770pt" height="303pt"
 viewBox="0.00 0.00 770.00 302.77" xmlns="http://www.w3.org/2000/svg" xmlns:xlink="http://www.w3.org/1999/xlink">
<g id="graph0" class="graph" transform="scale(1 1) rotate(0) translate(4 298.7743)">
<title>mulle_classhierarchy</title>
<polygon fill="#ffffff" stroke="transparent" points="-4,4 -4,-298.7743 766,-298.7743 766,4 -4,4"/>
<!-- 0xa98050 -->
<g id="node1" class="node">
<title>0xa98050</title>
<polygon fill="#daa520" stroke="transparent" points="19,-237 19,-258 35,-258 35,-237 19,-237"/>
<polygon fill="none" stroke="#000000" points="19,-237 19,-258 35,-258 35,-237 19,-237"/>
<text text-anchor="start" x="22" y="-243.8" font-family="Times,serif" font-size="14.00" fill="#ffffff">A</text>
<polygon fill="none" stroke="#000000" points="16,-234.5 16,-261.5 38,-261.5 38,-234.5 16,-234.5"/>
</g>
<!-- 0xa98590 -->
<g id="node2" class="node">
<title>0xa98590</title>
<polygon fill="#daa520" stroke="transparent" points="274,-237 274,-258 288,-258 288,-237 274,-237"/>
<polygon fill="none" stroke="#000000" points="274,-237 274,-258 288,-258 288,-237 274,-237"/>
<text text-anchor="start" x="277" y="-243.8" font-family="Times,serif" font-size="14.00" fill="#ffffff">P</text>
<polygon fill="none" stroke="#000000" points="271,-234.5 271,-261.5 291,-261.5 291,-234.5 271,-234.5"/>
</g>
<!-- 0xa98050&#45;&gt;0xa98590 -->
<!-- 0xa99150 -->
<g id="node4" class="node">
<title>0xa99150</title>
<polygon fill="#daa520" stroke="transparent" points="331,-139 331,-160 347,-160 347,-139 331,-139"/>
<polygon fill="none" stroke="#000000" points="331,-139 331,-160 347,-160 347,-139 331,-139"/>
<text text-anchor="start" x="334" y="-145.8" font-family="Times,serif" font-size="14.00" fill="#ffffff">B</text>
<polygon fill="none" stroke="#000000" points="328,-136.5 328,-163.5 350,-163.5 350,-136.5 328,-136.5"/>
</g>
<!-- 0xa98050&#45;&gt;0xa99150 -->
<g id="edge3" class="edge">
<title>0xa98050&#45;&gt;0xa99150</title>
<path fill="none" stroke="#000000" d="M63.7323,-236.4623C127.0993,-216.5586 255.5513,-176.2114 311.6984,-158.5755"/>
<polygon fill="#000000" stroke="#000000" points="62.6337,-233.1387 54.1422,-239.4746 64.7315,-239.817 62.6337,-233.1387"/>
<text text-anchor="middle" x="251" y="-189.8" font-family="Times,serif" font-size="14.00" fill="#000000"> superclass</text>
</g>
<!-- 0x408130 -->
<g id="node5" class="node">
<title>0x408130</title>
<polygon fill="#000000" stroke="transparent" points="159,-249 159,-270 225,-270 225,-249 159,-249"/>
<polygon fill="none" stroke="#000000" points="159,-249 159,-270 225,-270 225,-249 159,-249"/>
<text text-anchor="start" x="163" y="-255.8" font-family="Times,serif" font-size="14.00" fill="#ffffff">methodlist</text>
<polygon fill="none" stroke="#000000" points="159,-226 159,-247 225,-247 225,-226 159,-226"/>
<text text-anchor="start" x="182.5" y="-232.8" font-family="Times,serif" font-size="14.00" fill="#000000">foo</text>
<polygon fill="none" stroke="#000000" points="156,-223 156,-273 228,-273 228,-223 156,-223"/>
</g>
<!-- 0xa98050&#45;&gt;0x408130 -->
<g id="edge6" class="edge">
<title>0xa98050&#45;&gt;0x408130</title>
<path fill="none" stroke="#000000" d="M54.2464,-248C76.9093,-248 109.8673,-248 137.8636,-248"/>
<polygon fill="#000000" stroke="#000000" points="147.9253,-244 147.9253,-252 139.9253,-252.0001 139.9253,-244.0001 147.9253,-244"/>
<polyline fill="none" stroke="#000000" points="139.9253,-248.0001 137.9253,-248.0001 "/>
<text text-anchor="middle" x="101" y="-254.8" font-family="Times,serif" font-size="14.00" fill="#000000">methodlist #0</text>
</g>
<!-- 0xa98af0 -->
<g id="node3" class="node">
<title>0xa98af0</title>
<polygon fill="#daa520" stroke="transparent" points="527,-237 527,-258 543,-258 543,-237 527,-237"/>
<polygon fill="none" stroke="#000000" points="527,-237 527,-258 543,-258 543,-237 527,-237"/>
<text text-anchor="start" x="530" y="-243.8" font-family="Times,serif" font-size="14.00" fill="#ffffff">Q</text>
<polygon fill="none" stroke="#000000" points="524,-234.5 524,-261.5 546,-261.5 546,-234.5 524,-234.5"/>
</g>
<!-- 0xa98590&#45;&gt;0xa98af0 -->
<!-- 0xa98590&#45;&gt;0xa99150 -->
<g id="edge4" class="edge">
<title>0xa98590&#45;&gt;0xa99150</title>
<path fill="none" stroke="#000000" d="M297.1419,-220.7258C307.1024,-203.8959 319.6004,-182.7786 328.3355,-168.0193"/>
<polygon fill="#000000" stroke="#000000" points="293.9906,-219.1785 291.9094,-229.5669 300.0146,-222.7438 293.9906,-219.1785"/>
<text text-anchor="middle" x="363.5" y="-189.8" font-family="Times,serif" font-size="14.00" fill="#000000"> protocolclass #0</text>
</g>
<!-- 0x4081e0 -->
<g id="node6" class="node">
<title>0x4081e0</title>
<polygon fill="#000000" stroke="transparent" points="413,-249 413,-270 479,-270 479,-249 413,-249"/>
<polygon fill="none" stroke="#000000" points="413,-249 413,-270 479,-270 479,-249 413,-249"/>
<text text-anchor="start" x="417" y="-255.8" font-family="Times,serif" font-size="14.00" fill="#ffffff">methodlist</text>
<polygon fill="none" stroke="#000000" points="413,-226 413,-247 479,-247 479,-226 413,-226"/>
<text text-anchor="start" x="436.5" y="-232.8" font-family="Times,serif" font-size="14.00" fill="#000000">foo</text>
<polygon fill="none" stroke="#000000" points="410,-223 410,-273 482,-273 482,-223 410,-223"/>
</g>
<!-- 0xa98590&#45;&gt;0x4081e0 -->
<g id="edge7" class="edge">
<title>0xa98590&#45;&gt;0x4081e0</title>
<path fill="none" stroke="#000000" d="M308.2464,-248C330.9093,-248 363.8673,-248 391.8636,-248"/>
<polygon fill="#000000" stroke="#000000" points="401.9253,-244 401.9253,-252 393.9253,-252.0001 393.9253,-244.0001 401.9253,-244"/>
<polyline fill="none" stroke="#000000" points="393.9253,-248.0001 391.9253,-248.0001 "/>
<text text-anchor="middle" x="355" y="-254.8" font-family="Times,serif" font-size="14.00" fill="#000000">methodlist #0</text>
</g>
<!-- 0xa98af0&#45;&gt;0xa99150 -->
<g id="edge5" class="edge">
<title>0xa98af0&#45;&gt;0xa99150</title>
<path fill="none" stroke="#000000" d="M506.3406,-223.8108C503.9126,-222.1036 501.4484,-220.4764 499,-219 454.9611,-192.4438 398.8548,-170.73 366.1282,-159.138"/>
<polygon fill="#000000" stroke="#000000" points="504.2765,-226.6377 514.3816,-229.8217 508.4677,-221.031 504.2765,-226.6377"/>
<text text-anchor="middle" x="511.5" y="-189.8" font-family="Times,serif" font-size="14.00" fill="#000000"> protocolclass #1</text>
</g>
<!-- 0x408268 -->
<g id="node7" class="node">
<title>0x408268</title>
<polygon fill="#000000" stroke="transparent" points="667,-249 667,-270 733,-270 733,-249 667,-249"/>
<polygon fill="none" stroke="#000000" points="667,-249 667,-270 733,-270 733,-249 667,-249"/>
<text text-anchor="start" x="671" y="-255.8" font-family="Times,serif" font-size="14.00" fill="#ffffff">methodlist</text>
<polygon fill="#7fff00" stroke="transparent" points="667,-226 667,-247 733,-247 733,-226 667,-226"/>
<polygon fill="none" stroke="#000000" points="667,-226 667,-247 733,-247 733,-226 667,-226"/>
<text text-anchor="start" x="690.5" y="-232.8" font-family="Times,serif" font-size="14.00" fill="#000000">foo</text>
<polygon fill="none" stroke="#000000" points="664,-223 664,-273 736,-273 736,-223 664,-223"/>
</g>
<!-- 0xa98af0&#45;&gt;0x408268 -->
<g id="edge8" class="edge">
<title>0xa98af0&#45;&gt;0x408268</title>
<path fill="none" stroke="#000000" d="M562.2464,-248C584.9093,-248 617.8673,-248 645.8636,-248"/>
<polygon fill="#000000" stroke="#000000" points="655.9253,-244 655.9253,-252 647.9253,-252.0001 647.9253,-244.0001 655.9253,-244"/>
<polyline fill="none" stroke="#000000" points="647.9253,-248.0001 645.9253,-248.0001 "/>
<text text-anchor="middle" x="609" y="-254.8" font-family="Times,serif" font-size="14.00" fill="#000000">methodlist #0</text>
</g>
<!-- 0x4082f0 -->
<g id="node8" class="node">
<title>0x4082f0</title>
<polygon fill="#000000" stroke="transparent" points="268,-41.5 268,-62.5 334,-62.5 334,-41.5 268,-41.5"/>
<polygon fill="none" stroke="#000000" points="268,-41.5 268,-62.5 334,-62.5 334,-41.5 268,-41.5"/>
<text text-anchor="start" x="272" y="-48.3" font-family="Times,serif" font-size="14.00" fill="#ffffff">methodlist</text>
<polygon fill="none" stroke="#000000" points="268,-18.5 268,-39.5 334,-39.5 334,-18.5 268,-18.5"/>
<text text-anchor="start" x="291.5" y="-25.3" font-family="Times,serif" font-size="14.00" fill="#000000">foo</text>
<polygon fill="none" stroke="#000000" points="265,-15.5 265,-65.5 337,-65.5 337,-15.5 265,-15.5"/>
</g>
<!-- 0xa99150&#45;&gt;0x4082f0 -->
<g id="edge11" class="edge">
<title>0xa99150&#45;&gt;0x4082f0</title>
<path fill="none" stroke="#000000" d="M329.7647,-131.9344C327.0637,-126.2752 324.2385,-119.9518 322,-114 317.8866,-103.0632 314.1186,-90.9552 310.945,-79.7752"/>
<polygon fill="#000000" stroke="#000000" points="304.3483,-70.8916 312.0609,-68.7666 314.186,-76.4792 306.4733,-78.6042 304.3483,-70.8916"/>
<polyline fill="none" stroke="#000000" points="310.3296,-77.5417 310.8609,-79.4699 "/>
<text text-anchor="middle" x="360" y="-102.8" font-family="Times,serif" font-size="14.00" fill="#000000">methodlist #0</text>
</g>
<!-- 0x408608 -->
<g id="node9" class="node">
<title>0x408608</title>
<polygon fill="#000000" stroke="transparent" points="392,-52.5 392,-73.5 463,-73.5 463,-52.5 392,-52.5"/>
<polygon fill="none" stroke="#000000" points="392,-52.5 392,-73.5 463,-73.5 463,-52.5 392,-52.5"/>
<text text-anchor="start" x="398.5" y="-59.3" font-family="Times,serif" font-size="14.00" fill="#ffffff">methodlist</text>
<polygon fill="none" stroke="#000000" points="392,-29.5 392,-50.5 445,-50.5 445,-29.5 392,-29.5"/>
<text text-anchor="start" x="395" y="-36.3" font-family="Times,serif" font-size="14.00" fill="#000000">category</text>
<polygon fill="#daa520" stroke="transparent" points="447,-29.5 447,-50.5 463,-50.5 463,-29.5 447,-29.5"/>
<polygon fill="none" stroke="#000000" points="447,-29.5 447,-50.5 463,-50.5 463,-29.5 447,-29.5"/>
<text text-anchor="start" x="450" y="-36.3" font-family="Times,serif" font-size="14.00" fill="#ffffff">X</text>
<polygon fill="none" stroke="#000000" points="392,-6.5 392,-27.5 463,-27.5 463,-6.5 392,-6.5"/>
<text text-anchor="start" x="418" y="-13.3" font-family="Times,serif" font-size="14.00" fill="#000000">foo</text>
<polygon fill="none" stroke="#000000" points="388.5,-4 388.5,-77 465.5,-77 465.5,-4 388.5,-4"/>
</g>
<!-- 0xa99150&#45;&gt;0x408608 -->
<g id="edge12" class="edge">
<title>0xa99150&#45;&gt;0x408608</title>
<path fill="none" stroke="#000000" d="M366.0903,-138.2449C377.195,-132.3143 389.426,-124.1925 398,-114 403.7744,-107.1356 408.491,-98.9825 412.3134,-90.6468"/>
<polygon fill="#000000" stroke="#000000" points="412.5676,-79.6734 419.948,-82.7605 416.8608,-90.1409 409.4804,-87.0537 412.5676,-79.6734"/>
<polyline fill="none" stroke="#000000" points="413.1706,-88.5973 412.3988,-90.4424 "/>
<text text-anchor="middle" x="445" y="-102.8" font-family="Times,serif" font-size="14.00" fill="#000000">methodlist #1</text>
</g>
<!-- 0x408708 -->
<g id="node10" class="node">
<title>0x408708</title>
<polygon fill="#000000" stroke="transparent" points="521,-52.5 521,-73.5 592,-73.5 592,-52.5 521,-52.5"/>
<polygon fill="none" stroke="#000000" points="521,-52.5 521,-73.5 592,-73.5 592,-52.5 521,-52.5"/>
<text text-anchor="start" x="527.5" y="-59.3" font-family="Times,serif" font-size="14.00" fill="#ffffff">methodlist</text>
<polygon fill="none" stroke="#000000" points="521,-29.5 521,-50.5 574,-50.5 574,-29.5 521,-29.5"/>
<text text-anchor="start" x="524" y="-36.3" font-family="Times,serif" font-size="14.00" fill="#000000">category</text>
<polygon fill="#daa520" stroke="transparent" points="576,-29.5 576,-50.5 592,-50.5 592,-29.5 576,-29.5"/>
<polygon fill="none" stroke="#000000" points="576,-29.5 576,-50.5 592,-50.5 592,-29.5 576,-29.5"/>
<text text-anchor="start" x="579" y="-36.3" font-family="Times,serif" font-size="14.00" fill="#ffffff">Y</text>
<polygon fill="#7fff00" stroke="transparent" points="521,-6.5 521,-27.5 592,-27.5 592,-6.5 521,-6.5"/>
<polygon fill="none" stroke="#000000" points="521,-6.5 521,-27.5 592,-27.5 592,-6.5 521,-6.5"/>
<text text-anchor="start" x="547" y="-13.3" font-family="Times,serif" font-size="14.00" fill="#000000">foo</text>
<polygon fill="none" stroke="#000000" points="517.5,-4 517.5,-77 594.5,-77 594.5,-4 517.5,-4"/>
</g>
<!-- 0xa99150&#45;&gt;0x408708 -->
<g id="edge13" class="edge">
<title>0xa99150&#45;&gt;0x408708</title>
<path fill="none" stroke="#000000" d="M366.1139,-148.0653C397.1833,-144.835 448.7341,-136.3071 487,-114 498.4468,-107.3271 509.1574,-98.1734 518.5664,-88.5896"/>
<polygon fill="#000000" stroke="#000000" points="522.5831,-78.4721 528.4137,-83.9497 522.936,-89.7804 517.1054,-84.3027 522.5831,-78.4721"/>
<polyline fill="none" stroke="#000000" points="520.0207,-87.0415 518.6513,-88.4992 "/>
<text text-anchor="middle" x="544" y="-102.8" font-family="Times,serif" font-size="14.00" fill="#000000">methodlist #2</text>
</g>
<!-- 0x408268&#45;&gt;0x408708 -->
<g id="edge14" class="edge">
<title>0x408268:Q.foo&#45;&gt;0x408708:Y.foo</title>
<path fill="none" stroke="#000000" stroke-width="2" d="M699.9866,-215.8758C699.6854,-114.6023 693.3794,-16.5 592,-16.5"/>
<polygon fill="#000000" stroke="#000000" stroke-width="2" points="696.4867,-216.0047 700,-226 703.4867,-215.9953 696.4867,-216.0047"/>
<text text-anchor="middle" x="730" y="-146.3" font-family="Times,serif" font-size="14.00" fill="#006400"> [super foo]</text>
</g>
<!-- 0x4082f0&#45;&gt;0x408608 -->
<!-- 0x408608&#45;&gt;0x408708 -->
</g>
</svg>
